<svg id="Layer_1" data-name="Layer 1" xmlns="http://www.w3.org/2000/svg" viewBox="0 0 1965.2 1271.24"><defs><style>.cls-1{fill:#ff6c2c}</style></defs><title>OfferPad_mark</title><path class="cls-1" d="M994.58 495.27l587.8 761.86a23.41 23.41 0 0 0 18.53 9.11h307.8c19.44 0 30.4-22.32 18.53-37.7L1343 471.25l-183.51-237.82.16-.16-.65-.47-40.51-52.54L994.59 19.7a23.41 23.41 0 0 0-37.06 0L813.46 206.43l-20.4 26.37-.62.47.16.16-767.79 995.1c-11.87 15.39-.9 37.7 18.53 37.7h307.83a23.41 23.41 0 0 0 18.53-9.11l587.82-761.85a23.41 23.41 0 0 1 37.06 0z"/></svg>