<svg xmlns="http://www.w3.org/2000/svg" viewBox="0 0 230 30"><path d="M13.1 4.5c1.8 0 3.4.3 4.9.9 1.5.6 2.8 1.4 3.8 2.5 1.1 1.1 1.9 2.3 2.5 3.8.6 1.5.9 3.1.9 4.8s-.3 3.3-.9 4.8c-.6 1.5-1.4 2.7-2.5 3.8-1.1 1.1-2.4 1.9-3.8 2.5s-3.1.9-4.9.9-3.4-.3-4.9-.9-2.8-1.4-3.8-2.5c-1.1-1.1-1.9-2.3-2.5-3.8-.6-1.5-.9-3.1-.9-4.8s.3-3.3.9-4.8c.6-1.5 1.4-2.7 2.5-3.8 1-1.1 2.3-1.9 3.8-2.5 1.5-.6 3.1-.9 4.9-.9zm0 3.6c-1.2 0-2.3.2-3.3.6-1 .4-1.9 1-2.6 1.7-.7.7-1.3 1.6-1.7 2.7s-.6 2.2-.6 3.4.2 2.4.6 3.4 1 1.9 1.7 2.7c.7.7 1.6 1.3 2.6 1.7 1 .4 2.1.6 3.3.6s2.3-.2 3.3-.6c1-.4 1.9-1 2.6-1.7.7-.7 1.3-1.6 1.7-2.7.4-1 .6-2.2.6-3.4s-.2-2.4-.6-3.4c-.4-1-1-1.9-1.7-2.7-.7-.7-1.6-1.3-2.6-1.7-1-.4-2.1-.6-3.3-.6zm26.2 10.4v9.3c0 .2-.1.3-.3.3h-3.1c-.2 0-.3-.1-.3-.3V5.2c0-.2.1-.3.3-.3h15.9c.2 0 .3.1.3.3v2.9c0 .2-.1.3-.3.3H39.7c-.2 0-.3.1-.3.3v5.6c0 .2.1.3.3.3h11.4c.2 0 .3.1.3.3v2.9c0 .2-.1.3-.3.3H39.7c-.2.1-.4.2-.4.4zm26.9 0v9.3c0 .2-.1.3-.3.3h-3.1c-.2 0-.3-.1-.3-.3V5.2c0-.2.1-.3.3-.3h15.9c.2 0 .3.1.3.3v2.9c0 .2-.1.3-.3.3H66.5c-.2 0-.3.1-.3.3v5.6c0 .2.1.3.3.3h11.4c.2 0 .3.1.3.3v2.9c0 .2-.1.3-.3.3H66.5c-.2.1-.3.2-.3.4zm23.2 9.3V5.2c0-.2.1-.3.3-.3h16.1c.2 0 .3.1.3.3v2.9c0 .2-.1.3-.3.3H93.4c-.2 0-.3.1-.3.3v5.6c0 .2.1.3.3.3h11.9c.2 0 .3.1.3.3v2.9c0 .2-.1.3-.3.3H93.4c-.2 0-.3.1-.3.3v5.8c0 .2.1.3.3.3H106c.2 0 .3.1.3.3v2.9c0 .2-.1.3-.3.3H89.7c-.2.1-.3 0-.3-.2zm38.7-22.9c2.7 0 4.7.6 6.1 1.7 1.4 1.1 2.1 2.8 2.1 5 0 1-.2 1.9-.5 2.7-.4.8-.9 1.5-1.6 2.1-.7.6-1.5 1-2.4 1.4-.8.3-1.3.5-2.1.5-.2 0-.4.3-.2.5l6.9 8.8c.2.2 0 .5-.2.5h-3.8c-.1 0-.2 0-.2-.1l-7.2-9.5c-.1-.1-.2-.1-.2-.1h-1.9c-.2 0-.3.1-.3.3v9.1c0 .2-.1.3-.3.3h-3.1c-.2 0-.3-.1-.3-.3V5.2c0-.2.1-.3.3-.3h8.9zm-5.8 9.7c0 .2.1.3.3.3h5.4c1.5 0 2.6-.3 3.4-.8.7-.5 1.1-1.4 1.1-2.5s-.4-1.9-1.1-2.4c-.7-.5-1.8-.8-3.3-.8h-5.4c-.2 0-.3.1-.3.3v5.9zm29.1 13.5h-3.1c-.2 0-.3-.1-.3-.3V5.2c0-.2.1-.3.3-.3h8.7c1.3 0 2.5.2 3.5.5s1.9.8 2.6 1.4 1.2 1.3 1.6 2.2c.4.9.5 1.9.5 2.9 0 1.1-.2 2.1-.5 2.9-.4.9-.9 1.6-1.6 2.2-.7.6-1.6 1.1-2.6 1.4-1 .3-2.2.5-3.5.5h-5c-.2 0-.3.1-.3.3v8.5c0 .3-.1.4-.3.4zm.3-13c0 .2.1.3.3.3h4.8c1.5 0 2.7-.3 3.4-.8.7-.6 1.1-1.4 1.1-2.6 0-1.2-.4-2.1-1.1-2.6-.7-.6-1.8-.8-3.4-.8H152c-.2 0-.3.1-.3.3v6.2zM217 4.9c1.8 0 3.5.3 4.9.8 1.5.6 2.7 1.3 3.8 2.3 1.1 1 1.9 2.2 2.4 3.7.6 1.4.9 3 .9 4.8 0 1.7-.3 3.3-.9 4.8-.6 1.4-1.4 2.7-2.4 3.7-1.1 1-2.3 1.8-3.8 2.3-1.5.6-3.1.8-4.9.8h-8.9c-.2 0-.3-.1-.3-.3V5.2c0-.2.1-.3.3-.3h8.9zm-5.5 19.3c0 .2.1.3.3.3h5.2c1.4 0 2.5-.2 3.6-.6 1-.4 1.9-1 2.5-1.7.7-.7 1.2-1.6 1.5-2.5.3-1 .5-2.1.5-3.2 0-1.2-.2-2.2-.5-3.2s-.8-1.8-1.5-2.6c-.7-.7-1.5-1.3-2.5-1.7-1-.4-2.2-.6-3.6-.6h-5.2c-.2 0-.3.1-.3.3v15.5z" fill="#AEADAF"/><path fill="#FF6C2C" d="M186.2 9.2l7.8 10.1c.1.1.1.1.2.1h4.1c.3 0 .4-.3.2-.5l-7.8-10.1-2.4-3.2-.5-.6-1.6-2.1c-.1-.2-.4-.2-.5 0l-1.9 2.5-.3.4L173.3 19c-.2.2 0 .5.2.5h4.1c.1 0 .2 0 .2-.1l7.8-10.1c.2-.3.4-.3.6-.1z"/></svg>