<svg id="Layer_1" data-name="Layer 1" xmlns="http://www.w3.org/2000/svg" viewBox="0 0 3580 2520">
  <defs>
    <style>
      .cls-1,.cls-2,.cls-3,.cls-4,.cls-5,.cls-6,.cls-7,.cls-8{fill:#ffffff;}
      .cls-1{opacity:0.01;}
      .cls-2{opacity:0.02;}
      .cls-3{opacity:0.09;}
      .cls-4{opacity:0.03;}
      .cls-5{opacity:0.05;}
      .cls-6{opacity:0.04;}
      .cls-7{opacity:0.08;}
      .cls-8{opacity:0.07;}
    </style>
  </defs>
  <path class="cls-1" d="M1808.63 1116.36l590.18 764.5a23.51 23.51 0 0 0 18.6 9.14h309c19.52 0 30.52-22.4 18.6-37.83l-586.6-759.92-184.2-238.64.16-.16-.65-.47-40.72-52.73-124.4-161.12a23.51 23.51 0 0 0-37.21 0l-144.61 187.38-20.49 26.49-.62.47.16.16-770.9 998.55C823 1867.6 834 1890 853.54 1890h309.08a23.51 23.51 0 0 0 18.6-9.14l590.2-764.49a23.51 23.51 0 0 1 37.21 0z"/>
  <path class="cls-2" d="M3598.63 1431.36l590.18 764.5a23.51 23.51 0 0 0 18.6 9.14h309c19.52 0 30.52-22.4 18.6-37.83l-586.6-759.92-184.25-238.64.16-.16-.65-.47-40.67-52.73-124.4-161.12a23.51 23.51 0 0 0-37.21 0l-144.65 187.38-20.45 26.49-.62.47.16.16-770.9 998.55c-11.92 15.44-.9 37.83 18.6 37.83h309.08a23.51 23.51 0 0 0 18.6-9.14l590.2-764.49a23.51 23.51 0 0 1 37.21 0z"/>
  <path class="cls-3" d="M3598.63 2061.36l590.18 764.5a23.51 23.51 0 0 0 18.6 9.14h309c19.52 0 30.52-22.4 18.6-37.83l-586.6-759.92-184.25-238.64.16-.16-.65-.47-40.67-52.73-124.4-161.12a23.51 23.51 0 0 0-37.21 0l-144.65 187.38-20.45 26.49-.62.47.16.16-770.9 998.55c-11.92 15.44-.9 37.83 18.6 37.83h309.08a23.51 23.51 0 0 0 18.6-9.14l590.2-764.49a23.51 23.51 0 0 1 37.21 0z"/>
  <path class="cls-4" d="M3598.63 2691.36l590.18 764.5a23.51 23.51 0 0 0 18.6 9.14h309c19.52 0 30.52-22.4 18.6-37.83l-586.6-759.92-184.25-238.64.16-.16-.65-.47-40.67-52.73-124.4-161.12a23.51 23.51 0 0 0-37.21 0l-144.65 187.38-20.45 26.49-.62.47.16.16-770.9 998.55c-11.92 15.44-.9 37.83 18.6 37.83h309.08a23.51 23.51 0 0 0 18.6-9.14l590.2-764.49a23.51 23.51 0 0 1 37.21 0z"/>
  <path class="cls-5" d="M3598.63 801.36l590.18 764.5a23.51 23.51 0 0 0 18.6 9.14h309c19.52 0 30.52-22.4 18.6-37.83l-586.6-759.92-184.2-238.64.16-.16-.65-.47-40.72-52.73-124.4-161.12a23.51 23.51 0 0 0-37.21 0l-144.61 187.38-20.49 26.49-.62.47.16.16-770.9 998.55c-11.92 15.44-.9 37.83 18.6 37.83h309.08a23.51 23.51 0 0 0 18.6-9.14l590.2-764.49a23.51 23.51 0 0 1 37.21 0z"/>
  <path class="cls-6" d="M1808.63 1746.36l590.18 764.5a23.51 23.51 0 0 0 18.6 9.14h309c19.52 0 30.52-22.4 18.6-37.83l-586.6-759.92-184.25-238.64.16-.16-.65-.47-40.67-52.73-124.4-161.12a23.51 23.51 0 0 0-37.21 0l-144.65 187.38-20.45 26.49-.62.47.16.16-770.9 998.55C823 2497.6 834 2520 853.54 2520h309.08a23.51 23.51 0 0 0 18.6-9.14l590.2-764.49a23.51 23.51 0 0 1 37.21 0z"/>
  <path class="cls-7" d="M1808.63 2376.36l590.18 764.5a23.51 23.51 0 0 0 18.6 9.14h309c19.52 0 30.52-22.4 18.6-37.83l-586.6-759.92-184.25-238.64.16-.16-.65-.47-40.67-52.73-124.4-161.12a23.51 23.51 0 0 0-37.21 0l-144.65 187.38-20.45 26.49-.62.47.16.16-770.9 998.55C823 3127.6 834 3150 853.54 3150h309.08a23.51 23.51 0 0 0 18.6-9.14l590.2-764.49a23.51 23.51 0 0 1 37.21 0z"/>
  <path class="cls-2" d="M18.63 1431.36l590.18 764.5a23.51 23.51 0 0 0 18.6 9.14h309c19.52 0 30.52-22.4 18.6-37.83l-586.6-759.92-184.2-238.64.16-.16-.65-.47-40.72-52.73L18.64 954.14a23.51 23.51 0 0 0-33-4.24 23.5 23.5 0 0 0-4.24 4.24l-144.65 187.38-20.46 26.48-.62.47.16.16-770.9 998.55C-967 2182.6-956 2205-936.46 2205h309.08a23.51 23.51 0 0 0 18.6-9.14l590.2-764.49a23.51 23.51 0 0 1 33-4.24 23.5 23.5 0 0 1 4.24 4.24z"/>
  <path class="cls-3" d="M18.63 2061.36l590.18 764.5a23.51 23.51 0 0 0 18.6 9.14h309c19.52 0 30.52-22.4 18.6-37.83l-586.6-759.92-184.2-238.64.16-.16-.65-.47-40.72-52.73-124.36-161.11a23.51 23.51 0 0 0-33-4.24 23.5 23.5 0 0 0-4.24 4.24l-144.65 187.38-20.46 26.48-.62.47.16.16-770.9 998.55C-967 2812.6-956 2835-936.46 2835h309.08a23.51 23.51 0 0 0 18.6-9.14l590.2-764.49a23.51 23.51 0 0 1 33-4.24 23.5 23.5 0 0 1 4.24 4.24z"/>
  <path class="cls-4" d="M18.63 2691.36l590.18 764.5a23.51 23.51 0 0 0 18.6 9.14h309c19.52 0 30.52-22.4 18.6-37.83l-586.6-759.92-184.2-238.64.16-.16-.65-.47-40.72-52.73-124.36-161.11a23.51 23.51 0 0 0-33-4.24 23.5 23.5 0 0 0-4.24 4.24l-144.65 187.38-20.46 26.48-.62.47.16.16-770.9 998.55C-967 3442.6-956 3465-936.46 3465h309.08a23.51 23.51 0 0 0 18.6-9.14l590.2-764.49a23.51 23.51 0 0 1 33-4.24 23.5 23.5 0 0 1 4.24 4.24z"/>
  <path class="cls-5" d="M18.63 801.36l590.18 764.5a23.51 23.51 0 0 0 18.6 9.14h309c19.52 0 30.52-22.4 18.6-37.83L368.46 777.25 184.21 538.61l.16-.16-.65-.47L143 485.25 18.64 324.14a23.51 23.51 0 0 0-33-4.24 23.5 23.5 0 0 0-4.24 4.24l-144.62 187.37-20.49 26.49-.62.47.16.16-770.9 998.55C-967 1552.6-956 1575-936.46 1575h309.08a23.51 23.51 0 0 0 18.6-9.14l590.2-764.49a23.51 23.51 0 0 1 33-4.24 23.5 23.5 0 0 1 4.24 4.24z"/>
  <path class="cls-4" d="M3598.63 171.36l590.18 764.5a23.51 23.51 0 0 0 18.6 9.14h309c19.52 0 30.52-22.4 18.6-37.83l-586.6-759.92-184.2-238.64.16-.16-.65-.47-40.72-52.73-124.4-161.12a23.51 23.51 0 0 0-33-4.24 23.5 23.5 0 0 0-4.24 4.24l-144.58 187.38L3396.29-92l-.62.47.16.16-770.9 998.55C2613 922.6 2624 945 2643.54 945h309.08a23.51 23.51 0 0 0 18.6-9.14l590.2-764.49a23.51 23.51 0 0 1 37.21 0z"/>
  <path class="cls-3" d="M3598.63-458.64l590.18 764.5a23.51 23.51 0 0 0 18.6 9.14h309c19.52 0 30.52-22.4 18.6-37.83l-586.6-759.92-184.2-238.64.16-.16-.65-.47-40.72-52.73-124.4-161.12a23.51 23.51 0 0 0-33-4.24 23.5 23.5 0 0 0-4.24 4.24l-144.58 187.38-20.49 26.49-.62.47.16.16-770.9 998.55C2613 292.6 2624 315 2643.54 315h309.08a23.51 23.51 0 0 0 18.6-9.14l590.2-764.49a23.51 23.51 0 0 1 33-4.24 23.5 23.5 0 0 1 4.24 4.24z"/>
  <path class="cls-4" d="M18.63 171.36l590.18 764.5a23.51 23.51 0 0 0 18.6 9.14h309c19.52 0 30.52-22.4 18.6-37.83L368.46 147.25 184.21-91.39l.16-.16-.65-.47L143-144.75 18.64-305.86a23.51 23.51 0 0 0-33-4.24 23.5 23.5 0 0 0-4.24 4.24l-144.62 187.37L-183.71-92l-.62.47.16.16-770.9 998.55C-967 922.6-956 945-936.46 945h309.08a23.51 23.51 0 0 0 18.6-9.14l590.2-764.49a23.51 23.51 0 0 1 33-4.24 23.5 23.5 0 0 1 4.24 4.24z"/>
  <path class="cls-3" d="M18.63-458.64l590.18 764.5a23.51 23.51 0 0 0 18.6 9.14h309c19.52 0 30.52-22.4 18.6-37.83L368.46-482.75 184.21-721.39l.16-.16-.65-.47L143-774.75 18.64-935.86a23.51 23.51 0 0 0-33-4.24 23.5 23.5 0 0 0-4.24 4.24l-144.62 187.37-20.49 26.49-.62.47.16.16-770.9 998.55C-967 292.6-956 315-936.46 315h309.08a23.51 23.51 0 0 0 18.6-9.14l590.2-764.49a23.51 23.51 0 0 1 33-4.24 23.5 23.5 0 0 1 4.24 4.24z"/>
  <path class="cls-7" d="M1808.63-143.64l590.18 764.5a23.51 23.51 0 0 0 18.6 9.14h309c19.52 0 30.52-22.4 18.6-37.83l-586.6-759.92-184.2-238.64.16-.16-.65-.47-40.72-52.73-124.4-161.12a23.51 23.51 0 0 0-33-4.24 23.5 23.5 0 0 0-4.24 4.24l-144.58 187.38-20.49 26.49-.62.47.16.16-770.89 998.53C823 607.6 834 630 853.54 630h309.08a23.51 23.51 0 0 0 18.6-9.14l590.2-764.49a23.51 23.51 0 0 1 33-4.24 23.5 23.5 0 0 1 4.24 4.24z"/>
  <path class="cls-8" d="M1808.63 486.36l590.18 764.5a23.51 23.51 0 0 0 18.6 9.14h309c19.52 0 30.52-22.4 18.6-37.83l-586.6-759.92-184.2-238.64.16-.16-.65-.47-40.72-52.73L1808.64 9.14a23.51 23.51 0 0 0-37.21 0l-144.65 187.37-20.49 26.49-.62.47.16.16-770.9 998.55C823 1237.6 834 1260 853.54 1260h309.08a23.51 23.51 0 0 0 18.6-9.14l590.2-764.49a23.51 23.51 0 0 1 37.21 0z"/>
</svg>
