<svg id="svg2" xmlns="http://www.w3.org/2000/svg" viewBox="0 0 1142 816.46"><defs><style>.cls-1,.cls-3{fill:#e8e8e8;}.cls-2{fill:#ff6c2c;}.cls-3,.cls-9{stroke:#ff6c2c;stroke-width:3px;}.cls-13,.cls-3,.cls-8,.cls-9{stroke-miterlimit:10;}.cls-4{clip-path:url(#clip-path);}.cls-5{clip-path:url(#clip-path-2);}.cls-6{clip-path:url(#clip-path-3);}.cls-7{clip-path:url(#clip-path-4);}.cls-8,.cls-9{fill:none;}.cls-8{stroke:#f4803e;stroke-width:0.41px;}.cls-10{clip-path:url(#clip-path-5);}.cls-11{clip-path:url(#clip-path-6);}.cls-12{clip-path:url(#clip-path-7);}.cls-13{fill:#c6c6c6;stroke:#fff;stroke-width:2px;}.cls-14{font-size:28px;fill:#2b2b2b;font-family:Roboto-Bold, Roboto;font-weight:700;}</style><clipPath id="clip-path"><path id="US-ID" class="cls-1" d="M289.09 281.51c-2.2-.66-17.28-5.34-33.5-10.39l-39-12.14c-5.22-1.63-14.15-4.36-19.84-6.07-12-3.62-11.48-1.43-4.88-19.79 2.47-6.87 4.79-14.75 5.16-17.5a12.88 12.88 0 0 1 3.72-8.16c2.9-3 3-3.43 2.37-9-.37-3.2-.7-6.06-.72-6.34-.18-2.13.61-3.19 3.44-4.65 3.52-1.82 8.71-7.17 8.73-9 0-.62 1.79-2.87 4-5l3.95-3.87-1.46-8c-2.38-13.1-1.73-21 2.81-33.85 2.17-6.13 6.84-19.46 10.38-29.6s6.65-18.66 6.9-18.91c.65-.65 12.47 3 12.47 3.89 0 .39-1.14 5.16-2.52 10.59a70.54 70.54 0 0 0-2.47 17.38c0 4.13.06 8.4.07 9.49s1.74 5.15 3.84 9a54.56 54.56 0 0 1 4.58 10.51c.72 3.36 4.08 9.14 5.71 9.83 1.44.61.8 4.63-1.21 7.67a13.37 13.37 0 0 0-2 6.18c0 2.33-.56 3.36-2.06 3.84-2.33.74-3.94 4.22-3.94 8.5 0 2.43.54 3 3.38 3.82a15.82 15.82 0 0 0 5.89.45c2.15-.41 2.67 0 3.56 2.86a58.58 58.58 0 0 1 1.66 8.28 34.65 34.65 0 0 0 1 5.5 23.15 23.15 0 0 1 .95 4.07c1.34 7.82 2.54 11.31 4.66 13.57s2.82 2.31 7.83 1.79a35.72 35.72 0 0 1 12.33 1.11c3.7.93 7.52 1.44 8.5 1.14 2.86-.89 4.6.84 4 4-.27 1.57-2.62 11.64-5.23 22.36s-5.7 23.57-6.89 28.55l-2.15 9z"/></clipPath><clipPath id="clip-path-2"><path id="US-GA" class="cls-2" d="M875.5 631.46c-1.39-2.23-1.46-2.23-30.63-2.23h-29.22l-.88-3.25c-.49-1.79-1.4-3.14-2-3s-1.14.07-1.14-.14-.73-4.15-1.62-8.75a80.29 80.29 0 0 1-1.32-15.36c.65-15.19.31-18.35-2.42-22.47-2.43-3.67-3.93-9.92-5.29-22a96.81 96.81 0 0 0-2.85-12.5c-3.84-13.09-5.69-21.38-5-22.46a3.47 3.47 0 0 1 2.83-.87c2.08.13 15.1-.82 22.7-1.66 1.93-.21 7.42-.67 12.2-1l8.7-.64-.85 3c-.73 2.54-.46 3.35 1.8 5.46a15.79 15.79 0 0 0 4.82 3.14c1.19.36 4.74 3.79 7.88 7.63a85.94 85.94 0 0 0 10.83 11c6.1 4.77 15.52 16.42 19.13 23.66 1.42 2.86 3.37 5.45 4.33 5.75s2.57 2 3.59 3.8c2.55 4.46 6.66 8.75 8.38 8.75.92 0 1.22.62.84 1.75-.32 1-2.17 6.25-4.1 11.75-2.44 7-3.51 11.77-3.53 15.81 0 4.21-.34 5.61-1.2 5.08-1.25-.77-10.2-.65-12.93.17-1.28.39-1.47 1.26-.92 4.27a14.39 14.39 0 0 1 0 5.71c-.7 1.75-.79 1.74-2.13-.4z"/></clipPath><clipPath id="clip-path-3"><path id="US-IN" class="cls-1" d="M737.83 437.47c.28-2.07 2.29-6.59 4.48-10l4-6.29-.38-39.2c-.21-21.56-.55-40-.76-41-.29-1.33.28-1.75 2.33-1.75a6.35 6.35 0 0 0 3.73-1c.61-.61 9.36-1.11 21.85-1.25 17.87-.2 20.86 0 21.05 1.27 1.18 8.07 3.63 73.44 2.82 75.54-.31.8-1.75 1.47-3.2 1.47-3.47 0-3.89.36-9.66 8-6.72 8.88-7.27 9.35-10.85 9.48-1.73.06-5.61 1.56-8.64 3.34-4.9 2.87-6.26 3.2-12.5 3.05-3.85-.09-8.27.35-9.82 1-4.45 1.76-5 1.44-4.45-2.66z"/></clipPath><clipPath id="clip-path-4"><path id="US-NC" class="cls-3" d="M949.53 528.67a51.64 51.64 0 0 0-6.44-4c-1.65-.81-7.46-5.06-12.92-9.43l-9.92-8-11.29.41c-9.64.35-11.63.16-13.58-1.34-3.78-2.89-5.82-3.27-16.92-3.14s-18.79 1.78-28.2 6c-5.16 2.33-6.21 2.51-20.16 3.5-4.95.35-9.9.85-11 1.12-1.8.43-1.77.3.3-1.31a85.29 85.29 0 0 0 6.5-6.14 41.67 41.67 0 0 1 9.2-6.89 59.44 59.44 0 0 0 10-6.91 70.93 70.93 0 0 1 13-8.25c8.18-4 12.75-7.84 14-11.84 1-3.22 2.92-3.93 12.93-4.72 4.88-.39 9.83-.85 11-1s4.75-.63 8-1 6.82-.84 8-1 10.7-1.52 21.15-2.91 19.9-2.71 21-2.91 4.07-.67 6.59-1c7.1-1 20.69-3.54 27.54-5.09 1.65-.37 2.42.21 3.41 2.59 1.18 2.86 1.08 3.24-1.42 5.39l-2.7 2.32 4.95.68c3.69.51 5.61 1.42 7.54 3.59 3.4 3.81 3.28 5.07-.91 9.62a24 24 0 0 0-4.07 5.56c-.49 1.51-4.86 2.4-9.5 1.93-.31 0-.54 1.94-.5 4.38l.07 4.44h3.75c4.33 0 4.63.95 1.5 4.64-4.47 5.26-6.13 6.36-9.62 6.36-3.06 0-4.46 1-11.31 8.13s-7.82 8.59-7.82 11.76-.38 3.8-4 5.37c-2.2 1-4.14 1.74-4.31 1.74a32 32 0 0 1-3.84-2.65z"/></clipPath><clipPath id="clip-path-5"><path id="US-NM" class="cls-1" d="M395.09 575c-5.5-1-11.57-2.1-13.5-2.41-5.19-.84-26-4.47-30-5.25a109.32 109.32 0 0 0-13.5-.72h-10l-.32 2.75c-.37 3.18-1.3 3.32-8.53 1.32a82.6 82.6 0 0 0-11.65-2c-3.57-.34-7.51-.87-8.75-1.18-4.4-1.09-7.1.41-8.37 4.67-1.16 3.88-1.32 4-5.67 4-5.72 0-12.21-1.93-12.21-3.63 0-1.35 6.7-31.6 12.15-54.87 1.68-7.15 3.24-14.06 3.48-15.35s1.14-5.34 2-9 1.74-7.55 2-8.65 3.27-14.6 6.77-30l6.38-28 2.88.07a50 50 0 0 1 6.38.71c11.72 2.15 56.75 10.83 58 11.18.82.23 3.07.65 5 .94 4.61.68 39.16 7.34 45.28 8.73 4.64 1 4.76 1.17 4.25 4.23-.29 1.73-.7 4.27-.92 5.64s-.67 4.07-1 6c-.9 5.25-1.49 8.83-2.65 16-1.27 7.9-1.71 10.59-2.39 14.54-.29 1.67-3.22 19.45-6.51 39.5-7.5 45.62-7 43-7.85 42.84z"/></clipPath><clipPath id="clip-path-6"><path id="US-TN" class="cls-1" d="M693.6 515.93c0-2.85 2.17-8.6 4.79-12.74 3.63-5.75 6.17-12.18 6.85-17.36.63-4.72 2.39-7 5.6-7.17l14.75-.85c10.44-.59 12.75-1 14-2.57s3.76-1.91 26.5-2.46c66.48-1.61 81.48-2.11 94.75-3.17 3.71-.3 6.75-.25 6.75.11 0 1.36-2.38 5-4.4 6.74a61 61 0 0 1-9.36 5.23 68.22 68.22 0 0 0-13 8.42 50.08 50.08 0 0 1-10.28 6.89 23.27 23.27 0 0 0-7.5 5.58 40.52 40.52 0 0 1-8 6.84 49.38 49.38 0 0 0-5.5 3.87c-1.07 1.41-12.29 1.88-59 2.44-26.68.32-50.41.76-52.75 1-2.8.27-4.21.02-4.2-.8z"/></clipPath><clipPath id="clip-path-7"><path id="US-TX" class="cls-3" d="M516.69 760.07c-4.54-3.32-6.18-4-10.27-4-3.84 0-6-.72-10.1-3.4a51.51 51.51 0 0 0-9.23-4.75c-2.2-.74-4.57-2.11-5.27-3a34.66 34.66 0 0 0-2.68-3.11c-1.32-1.32-3.34-9-2.46-9.35.22-.08-.79-1.27-2.26-2.63-2.35-2.17-2.75-3.5-3.32-10.85s-1.12-9.16-4.8-15.37c-6.58-11.11-13.43-25.22-14.18-29.21-1-5.37-6.1-14.9-9.65-18.05a26.42 26.42 0 0 1-5-6.44c-1.53-3-2.62-3.83-5.65-4.35-2.06-.35-6.23-1.19-9.25-1.85-8.31-1.82-14.69-.19-17.14 4.39a16.56 16.56 0 0 0-1.86 4.68c0 .66-1.52 2.8-3.37 4.77-2.62 2.78-4.12 3.56-6.75 3.5-4.77-.1-5.84-.69-13.39-7.43-10.12-9-15.26-16.14-15.58-21.56a37.72 37.72 0 0 0-2.09-9.23 28.07 28.07 0 0 1-1.82-7.75c0-3-2.67-6.58-11.53-15.48a35.11 35.11 0 0 1-5.79-7.76c-1-2-2.59-4.15-3.61-4.7a8.71 8.71 0 0 1-3-4.23 19.32 19.32 0 0 0-3.63-5.85c-1.63-1.7-2.37-3.44-2.12-5 .35-2.26.79-2.43 6.54-2.46a120.69 120.69 0 0 1 16.4 1.72c10.94 1.88 14.56 2.47 20.48 3.39 2.06.32 5.55 1 7.75 1.44s6.25 1.17 9 1.53a36.9 36.9 0 0 1 5.58 1c1.44.86 12.92 1.57 12.92.8 0-.47.68-4.69 1.52-9.36s1.7-9.85 1.93-11.5 2.49-15.6 5-31 4.85-29.52 5.15-31.38.73-4.31.95-5.46.64-3.69.94-5.66.74-4.67 1-6 .75-4.24 1.09-6.46.77-4.72.94-5.54a23.42 23.42 0 0 0 .39-2.59c.05-.77 2.56-.72 8.61.17 4.69.69 11.33 1.55 14.75 1.9s6.89.81 7.72 1 4 .66 7 1 8.2 1 11.5 1.55 6.39.94 6.86.94.58 3.5.23 7.76c-1.34 16.4-3.64 40.83-4 42.46-.5 2.25.79 3.16 7.41 5.28 3.34 1.07 6.38 2.84 7.72 4.51 2.32 2.87 8.08 4.86 16.12 5.57 4.79.42 10 3.19 11.91 6.37a4.64 4.64 0 0 0 4 2.06 31.85 31.85 0 0 1 8.23 2.09c5 1.91 7.2 2.06 26 1.79 22.48-.33 21.88-.45 31.84 6.37a32.7 32.7 0 0 0 7.75 3.91l3.42.94v43.63l2.9 6.4a68.89 68.89 0 0 1 4.1 12.48c1.08 5.5 1 6.45-.8 10a37 37 0 0 0-2.71 10.4 60.27 60.27 0 0 1-2.53 11.5 74.14 74.14 0 0 0-2.47 8.25c-.51 2.53-1.17 3.25-3 3.25-3.95 0-9.3 2.83-13.07 6.9s-14.17 10.43-26.47 16.09c-6.72 3.09-12.62 6.44-14 8-.28.3-2.75 2.31-5.5 4.47-6.29 4.94-9.37 8.35-15.19 16.8-4.47 6.5-4.62 6.95-4.43 13.5a49.19 49.19 0 0 0 1.13 9.78c1.06 3.4 2 19.31 1.27 21.24s-2.31 1.41-8.08-2.82z"/></clipPath></defs><g id="g4100"><path id="US-AL" class="cls-1" d="M740.94 645.7c-.44-1.15-1.44-1.36-4.1-.86l-3.51.66.56-37.89c.31-20.84.77-39.91 1-42.39s.78-8.32 1.17-13 .86-9.26 1-10.19.63-5.63 1-10.43.79-9.43.91-10.29c.16-1.08 1.44-1.61 4.14-1.71 2.15-.08 13.23-.42 24.62-.75l20.71-.6 1 3.74c.55 2.06 1.49 6 2.09 8.74s2 7.7 3.08 11c1.84 5.58 3.15 12.76 4.43 24.27a37.22 37.22 0 0 0 3.49 10.48c3.07 6 3.15 6.64 2.77 22.75-.19 8.13.1 10.85 2.11 19.26.49 2.07.6 3.91.25 4.11s-6.72.42-14.15.51-19.57.43-27 .76c-11.88.53-13.7.84-15.25 2.63-2.21 2.54-2.23 2.22.6 9.3a86.71 86.71 0 0 1 3 8.67l.65 2.75h-7.05c-5.28.01-7.07-.35-7.52-1.52z"/><path id="US-AR" class="cls-1" d="M608.38 563.27l-.29-7.47-3.25-.93c-3.8-1.09-3.54 1.26-3.16-28.14.14-11 .2-26.2.14-33.77l-.12-13.77 44 .39c24.19.22 44.25.66 44.58 1s0 2.66-.68 5.18c-1.46 5.22-1.18 5.66 4.76 7.35 2.34.66 4.25 1.68 4.25 2.25s-1.51 3.62-3.35 6.76a48.27 48.27 0 0 0-4.54 10.67 23.06 23.06 0 0 1-5.12 9.45c-2.79 3.2-4.12 5.8-4.61 9a22.18 22.18 0 0 1-4.51 9.56c-5.47 7.25-7.13 12.45-7 22l.13 8h-61z"/><path id="US-AZ" class="cls-2" d="M256.09 568.15c-4.95-1.06-11.32-2.6-14.15-3.43a40 40 0 0 0-9-1.49c-3.15 0-5-.95-10.34-5.25-3.57-2.89-7.39-6.06-8.5-7.06s-6.06-4.57-11-7.94c-10.78-7.34-26.65-19.27-31.5-23.67a30 30 0 0 0-7-4.64c-3.69-1.54-9.47-7.85-8.56-9.33.29-.48 3-1.87 6.05-3.1 5.09-2.07 5.52-2.49 5.52-5.47a7 7 0 0 0-2-5c-2.88-2.61-2.48-5 1.55-9.12a37.88 37.88 0 0 0 5.52-7.52c1.18-2.31 2.69-3.86 3.76-3.86s3-1.3 4.56-2.89l2.77-2.89-2.3-4.36c-1.88-3.57-2.3-6-2.33-13.11 0-4.81.25-8.75.6-8.75s1-3.94 1.36-8.75c.52-6.22 1.3-9.55 2.7-11.52 1.87-2.63 2.27-2.74 7.72-2.16l5.75.61 3.24-8.58c1.78-4.72 3.56-8.78 4-9 .76-.47 95.28 22.76 97 23.85.65.4.7 1.49.15 2.94a33.58 33.58 0 0 0-1.37 5.21c-.27 1.6-3.69 16.86-7.6 33.91s-7.29 31.9-7.51 33-2.25 10.1-4.52 20-5.79 25.54-7.83 34.75c-4.28 19.16-2.57 17.66-16.74 14.62z"/><g id="US-CA"><path id="path130" class="cls-2" d="M149.46 502.22c-1.64-1-22.44-6.63-35.15-9.59-8.93-2.08-9.72-3.34-10.24-16.38-.38-9.59-.6-10.47-4.08-16.19-2-3.33-5.39-7.24-7.48-8.69a16.31 16.31 0 0 1-5-5.35 19.83 19.83 0 0 0-4.9-5.76 44.59 44.59 0 0 1-7-7.87c-3.58-5.25-8.53-9.17-11.58-9.18s-9-4.08-11.88-7.92-2.73-8.12.16-11.32c2.22-2.45 1.85-6.54-1.67-18.76-1.67-5.78-3-11.65-3-13.06s-1.47-5-3.27-8c-3.79-6.33-3.81-6.5-1.21-10.4 2.83-4.24 2.62-12.5-.41-16.6-1.94-2.63-2.18-3.81-1.61-8a18.5 18.5 0 0 1 2.61-7.37c2.71-3.45 1.74-7.37-2.82-11.31-3.29-2.85-3.76-3.81-3.86-8a30.37 30.37 0 0 0-2.25-9.59 61.89 61.89 0 0 1-3.29-10.5c-1.09-5.36-1-6.3 2.37-16.9l3.53-11.22-2.49-6.16c-2.45-6.07-2.46-6.23-.72-10.08a32.14 32.14 0 0 1 4.13-6.62c1.3-1.49 4.83-6.39 7.84-10.88 4.71-7 5.49-8.88 5.59-13.17.07-3.18.52-4.86 1.23-4.64 1.24.39 29.12 10.46 45.62 16.49l20.68 7.54c10.12 3.69 10.17 3.72 9.16 6.33-.56 1.44-3.18 8.7-5.82 16.12l-10 28c-2.84 8-6.07 17.1-7.19 20.27-2 5.73-2 12.51 0 15.11.47.61 3.35 5.84 6.39 11.62C130.12 359 174 440.93 174.87 442c.57.71.94 4.39.82 8.16-.17 5.32.25 7.8 1.88 11 2.43 4.76 2.12 5.71-2.27 6.84-2.4.62-3.78 1.94-5.52 5.27a41.34 41.34 0 0 1-5.75 8c-4 4.17-4.58 8.81-1.43 12.19 2.95 3.16 2.51 4-3.27 6.49-7.55 3.2-8.07 3.32-9.87 2.27z"/></g><path id="US-CO" class="cls-1" d="M434.59 445.54c-4.41-1.05-19.71-4.2-33.5-6.89l-7-1.38c-2.75-.55-6.12-1.18-7.5-1.41-2.37-.4-16.18-3-51-9.74l-22-4.25c-4.6-.89-6.45-1.68-6.31-2.7.1-.79 3.64-17 7.86-35.94s7.86-35.4 8.08-36.5 1.68-7.62 3.22-14.5c2.44-10.86 3.06-12.48 4.73-12.34 1.06.09 6.37 1.1 11.8 2.25s10.95 2.29 12.26 2.53 3.17.67 4.12 1 2.87.72 4.24 1c3.61.63 14.86 3 36.5 7.68 10.45 2.26 20.8 4.29 23 4.51s5.35.63 7 .91 4.57.76 6.5 1.06c18.2 2.87 23.49 4.13 23.29 5.51-1.1 7.74-6.44 46.38-6.84 49.47-.28 2.2-.71 5.13-.94 6.5s-.64 4.07-.9 6-1.39 10-2.51 18-2.2 15.85-2.4 17.5c-.3 2.55-.8 3-3.27 3.06a44.06 44.06 0 0 1-8.43-1.33z"/><path id="US-CT" class="cls-1" d="M1015.83 319c.23-.68-.34-3.29-1.26-5.79s-1.53-5.44-1.36-6.52.41-3.36.53-5.08l.23-3.13 11.05-2.32c6.08-1.28 11.59-2.41 12.24-2.52.93-.16 5.31 14.63 5.31 17.95 0 .33-2.59 1.32-5.75 2.19-8.67 2.41-15.64 4.77-16.7 5.66-1.48 1.25-4.74.92-4.29-.44z"/><path id="US-DE" class="cls-1" d="M982.8 389.53c-1.12-4.29-2.61-10.87-3.32-14.62-1.1-5.84-1.08-7 .16-7.73 2.46-1.56 2.95-1.08 2.95 2.93 0 7.6.88 9.46 5.89 12.47 4.48 2.69 10.11 10 10.11 13 0 .93-2 1.37-6.88 1.51l-6.88.2z"/><path id="US-FL" class="cls-2" d="M935.06 766.47c.36-4.08 1.3-8.69 2.09-10.22 1.09-2.12 1.39-6.1 1.19-16.62-.25-13.22-.41-14.14-3.31-19.81-1.68-3.27-4.93-9.59-7.22-14.06a70.84 70.84 0 0 1-5.22-13C920.46 683 918.26 678 913 671c-8.27-10.92-19.62-35.37-19.62-42.28 0-2.7-2.1-4.16-6.06-4.22-.57 0-1.17 0-1.81.06l-4.09.31-.31 5.34c-.36 6.08-.34 6.07-3.72 6.69-1.86.34-2.93-.18-4.12-2s-2.44-2.44-5.37-2.37h-29.41l-25.69-.12-.69-3.09-.69-3.12-26.12.66c-14.38.35-27.06.82-28.16 1s-2.34.43-2.75.47c-1.23.13-.85 2.51 1.19 7.69a65.3 65.3 0 0 1 2.53 7.69c.44 2 1.07 2.66 2.31 2.31.94-.26 6.34-.77 12-1.12l10.22-.66 5.78 3.5a56.26 56.26 0 0 0 9.25 4.56 12.18 12.18 0 0 1 5.91 4.63c2.19 3.22 2.69 3.46 6 2.88 2-.35 7.19-2.45 11.59-4.66 12.24-6.13 14.42-6.74 18-5a16.81 16.81 0 0 1 5.41 4.91c1.3 1.9 6.1 6.86 10.69 11 9.59 8.73 10.15 10 11 24.84a80.38 80.38 0 0 0 3 17.81 65 65 0 0 1 2.41 9.5c0 .94 1.56 3 3.47 4.69a21.32 21.32 0 0 1 5.59 9c1.65 4.61 3.05 6.65 6 8.75a27.15 27.15 0 0 1 6.59 7.59c1.51 2.71 3.91 5.37 5.41 6s5.23 4.07 8.34 7.59c5.86 6.63 13.69 11.91 16.47 11.09 4-1.17 10.09-1.58 10.09-.69"/><path id="US-IA" class="cls-1" d="M663 370.21c-1.75-1.75-4.12-2-27.42-2.55-14-.35-28.2-.78-31.5-.94s-8.76-.34-12.14-.39l-6.14-.09-2-4.25a40.4 40.4 0 0 1-2.63-10.75c-.63-6.39-1.32-12.31-2.17-18.78a32.34 32.34 0 0 0-2.88-8.1c-2.16-4.27-2.46-6.24-2.6-17.22-.09-6.82-.11-13-.06-13.66.08-1 10.12-1.21 48.31-1l48.21.26.79 3.5c.43 1.93 1.07 6.2 1.41 9.5.68 6.61 3.24 11.17 6.75 12.06a6.06 6.06 0 0 1 3.39 3.25 27.68 27.68 0 0 0 3.36 5.4c3.76 4.61 2 16.09-2.88 18.65a26.65 26.65 0 0 1-6 1.62c-4.19.69-4.25.77-4.34 4.87-.32 15.24-.37 15.43-4.77 18.56-2.69 1.94-2.79 1.94-4.69.06z"/><path id="US-IL" class="cls-1" d="M709.5 460.13c-.44-11.29-1.13-12.51-11.41-19.94-7-5.1-7.51-5.67-7-8.46.31-1.65.82-5.33 1.13-8.18.63-5.73-.34-7.4-6.31-10.83-3.06-1.76-5.34-5.15-5.34-7.95 0-.75-2.81-4.38-6.25-8.06-6.6-7.07-7.08-8-8-16l-.6-5 4.82-3.67 4.82-3.67.15-8.78c.08-4.83.26-8.88.39-9a14 14 0 0 1 2.93-.73c7.7-1.4 11.74-6.65 12.38-16.13.29-4.25-.11-5.62-2.64-9.16a31.34 31.34 0 0 1-3-4.64c0-.26 5.74-.35 12.75-.19s18.71.34 26 .39l13.25.1v2.54a10.37 10.37 0 0 0 1.43 4.75c2.63 4.09 3.2 12 3.43 47.71.12 19.53.46 37.36.75 39.64.47 3.64 0 5-3.91 11.06s-4.51 7.84-5 14.05c-.71 8.51-2.72 13.82-5.58 14.73a6.23 6.23 0 0 0-3.13 2.6c-.83 1.56-2.12 1.93-6.67 1.93-3.84 0-6.22.53-7.46 1.66-1.73 1.54-1.85 1.5-1.93-.77z"/><path id="US-KS" class="cls-1" d="M591.29 460.61c-.11-.1-4.7-.49-10.2-.86s-10.68-.83-11.5-1-5.78-.66-11-1-10.18-.81-11-1-6-.61-11.5-1-10.66-.84-11.48-1-5.78-.6-11-1-10.18-.85-11-1-5.78-.6-11-1-10.18-.86-11-1-6-.61-11.5-1-10.66-.86-11.48-1a41.13 41.13 0 0 0-5.07-.37l-3.57-.08 1.78-12.75c1-7 2-14.78 2.36-17.25s.78-5.62 1-7 .66-4.07.91-6 1-7.1 1.58-11.5 1.32-9.57 1.57-11.5.71-5.23 1-7.35l.58-3.85 6.64.57c6.37.54 21.79 2.19 29.14 3.11 1.93.24 6.43.72 10 1.06s7.63.78 9 1 5.43.65 9 1 7.63.8 9 1 5.88.67 10 1 8.18.82 9 1 4.88.6 9 1 8.35.89 9.4 1.09 5.77.62 10.5 1c7.72.54 8.9.89 11.52 3.46 2.88 2.83 2.89 2.89 1.13 5.57-1.52 2.31-1.61 3.28-.62 6.57.64 2.13 1.79 3.86 2.58 3.86a3.32 3.32 0 0 1 2.39 1.81c1.72 3.21 2.35 30.62 1 43.86l-1.25 12.34-2.88-.22a16.11 16.11 0 0 1-3.03-.57z"/><path id="US-KY" class="cls-1" d="M712.74 470c.14-2.91.67-5.86 1.18-6.55s3.26-1.25 6.83-1.25c4.25 0 6.07-.41 6.47-1.45.31-.8 2-2.33 3.85-3.4 2.59-1.53 3.57-3 4.58-7 1.22-4.77 1.55-5.13 5.87-6.5a47.64 47.64 0 0 1 11.83-1.41c6.43 0 7.83-.32 12.32-3.11 3-1.84 6.41-3.15 8.29-3.15 3.47 0 7-3.11 13.66-12l3.69-4.94a16.51 16.51 0 0 1 4.56-1l4.23-.56.31-4.8.31-4.8 3.44.55a21.4 21.4 0 0 1 7.41 3.42c4.59 3.32 11 4.56 22.09 4.26 6.57-.18 7.8.07 9.47 1.91a7 7 0 0 1 1.61 5.58c-.34 4 1.82 8.12 8.07 15.53l4.15 4.93-2.44 1.74c-2.84 2-4 3.2-13.55 13.85-6.18 6.92-7.57 8-10.5 8-9.35.15-70 1.72-73.88 1.92-2.47.13-7.78.28-11.78.34-5.93.09-7.42.44-8 1.86-.84 2.05.13 1.86-13.52 2.69l-10.8.66z"/><path id="US-LA" class="cls-1" d="M711.09 680.07c-1.65-.55-5.15-1.88-7.77-3-4.31-1.77-5.08-1.82-8-.52-3.63 1.62-6.2 2.25-12.74 3.13-6.15.82-12.3-2-17.73-8.27a35.44 35.44 0 0 0-8.85-7.11l-4.55-2.3-2.18 2c-4.08 3.76-12.75 3.22-20.83-1.31-3.28-1.84-17.87-2.06-19.63-.3-2.18 2.18-2.11.33.24-6.71a80 80 0 0 0 2.95-11.45c1.08-8 1.59-9.87 3.53-13.22 1.74-3 1.79-3.84.62-9.78a66.9 66.9 0 0 0-4-12.5c-2.51-5.45-2.81-7.31-3.21-20.25l-.44-14.25H639c23.75 0 30.59.28 30.64 1.25a39.85 39.85 0 0 0 2.08 11.05c1.55 3.82.06 8.6-6.75 21.55-6.39 12.17-7.74 18.71-4.12 20.07 1.22.46 6.5.95 11.72 1.09 8.25.23 17.32.56 24.61.9 1.9.09 2.16.86 2.69 7.8.65 8.56 1.45 9.69 9.46 13.42 3.91 1.82 4.25 2.28 4.25 5.78 0 2.37-.67 4.4-1.78 5.41-3 2.72-2.63 6.29.82 7.72s8 6.36 8 8.56c0 .78-.86 1.42-1.92 1.42a13.21 13.21 0 0 0-3.25.42 9.59 9.59 0 0 1-4.36-.6z"/><g id="US-MA"><path id="path169" class="cls-1" d="M1055.23 295.22c-2.12-3.3-4.37-6-5-6.07s-1.88-.22-2.79-.4c-1.32-.26-21.55 3.56-31.43 5.93-1.91.46-2.1 0-2.27-5.23a68.21 68.21 0 0 0-.74-8.45c-.53-2.61-.36-2.75 3.27-2.82a55.26 55.26 0 0 0 6.33-.49l12.88-2.07c9.93-1.59 10.54-1.83 13.87-5.51 2.69-3 4.23-3.86 6.74-3.86 4.8 0 5.71 1.68 4 7.39-1.31 4.35-1.28 5 .29 7.1a24.06 24.06 0 0 0 5.48 4.65c2.06 1.28 3.75 2.58 3.75 2.88 0 1.27 6 3.93 7.48 3.35 2-.78 1.27-5.21-1.23-7.12-1.47-1.12-1.42-1.25.49-1.25 1.23 0 3 1.3 4.32 3.09 2.18 3.06 2.18 3.11.28 5.66-1.06 1.42-4.14 3.33-6.88 4.26a62.46 62.46 0 0 0-8 3.33c-5.07 2.77-6.64 2.14-10.84-4.37z"/></g><path id="US-MD" class="cls-1" d="M983.71 408.59c-.83-1.82-1.73-2.43-3.08-2.08-3.72 1-7.74-6.25-8-14.28A65.83 65.83 0 0 0 972 385c-.38-2.35-.15-4.32.61-5.24a3.41 3.41 0 0 0 .63-3c-.85-2.21-4.16-.27-6.17 3.62-2.15 4.16-1.07 19.74 1.76 25.3l2 3.89-2.34-.66c-1.29-.37-3.57-.93-5.08-1.26-3.76-.82-7.76-4.76-7.76-7.64 0-1.31 1.54-4.14 3.42-6.3l3.42-3.92-2.64-2.79-2.57-2.71-3 2.49c-3.19 2.68-6.41 2.55-8.24-.33a42.69 42.69 0 0 0-4.34-4.91c-2.83-2.83-4-3.33-8-3.32a32.66 32.66 0 0 0-19.09 6.53c-2.84 2-5.39 3.48-5.66 3.21a13.41 13.41 0 0 1-1.07-4c-.56-3.47-.55-3.48 3.79-4 2.4-.29 12.46-2 22.36-3.69 18.56-3.25 18.95-3.32 26.5-4.56 2.47-.41 5.4-.92 6.5-1.14s3.37-.63 5.05-.91l3.05-.51 1.74 9.28a153.07 153.07 0 0 0 3.84 15.57l2 6.25h15.78l-.24 4.44c-.13 2.44-.46 4.63-.72 4.86a34.58 34.58 0 0 1-6.58 1c-5.81.59-6.12.51-7.24-1.96z"/><path id="US-ME" class="cls-1" d="M1053.13 251.69c-3.38-4.43-10.72-27-13.16-40.46-.25-1.37-.68-3.25-1-4.17a2.1 2.1 0 0 1 .47-2.27c1.58-1 5.33-11.69 5.8-16.57.24-2.47.87-7 1.41-10s1.25-8.15 1.58-11.4a84.61 84.61 0 0 1 3.22-14l2.62-8.1 6.8-.67c3.74-.37 7.33-1.07 8-1.56a6 6 0 0 1 3.45-.7l3.72.31c.81.07 3 1.48 4.88 3.13 2.78 2.44 3.41 3.7 3.36 6.75-.14 9.33 7.06 27.28 11.82 29.44 1.36.62 2.47 1.63 2.47 2.24s1.34 2.74 3 4.74a12.9 12.9 0 0 0 8 4.82c6.15 1.48 7.84 3.2 6.17 6.3-2.8 5.2-7.77 9.71-12.17 11-3.36 1-6.79 3.54-13.47 9.95-4.93 4.72-11 10.14-13.46 12a63.5 63.5 0 0 0-8.5 8.28c-2.2 2.66-5.74 6.88-7.88 9.38l-4.16 4.87c-.1.16-1.47-1.34-2.97-3.31z"/><g id="US-MI"><path id="path174" class="cls-1" d="M759.59 333.23a5 5 0 0 1 1.5-2.65 6.33 6.33 0 0 0 1.5-3.91 44 44 0 0 1 2.15-9c1.75-5.33 1.94-7 1-9.07a20.86 20.86 0 0 1-1.15-7c0-2.45-.37-4.45-.83-4.45s-1.92-2.33-3.25-5.17c-2.82-6-3-15.3-.31-19.35a19 19 0 0 0 2-7.05c.24-2.55 1.09-5.29 1.9-6.1a6.06 6.06 0 0 0 1.47-3.74 3.78 3.78 0 0 1 2.5-3.41c1.38-.63 2.5-1.6 2.5-2.16 0-2.19 2-.87 2.62 1.73.92 3.84 1.24 4.24 2.91 3.6.81-.31 1.48-1.75 1.5-3.21A8.67 8.67 0 0 1 779 248a6 6 0 0 0 .87-4.17c-.37-1.94 0-2.48 1.89-2.75s2.37-.95 2.49-4.33c.33-9-.06-8.37 4.46-7.76 2.59.35 4.37.12 4.82-.61s2.11.16 4.9 2.82a23.51 23.51 0 0 0 8.14 5c6.87 1.85 9.57 5.8 10.59 15.51 1 9.47.8 11.2-1.64 14.63a13.23 13.23 0 0 0-2.83 7.12c0 .41-.75.75-1.58.75-1 0-1.5 1-1.5 3.38 0 1.86.68 3.94 1.5 4.62 1.77 1.47 2.46 1 10.21-6.37l5.21-5 3.4 3.71c3.26 3.56 5.46 8.79 6.36 15.14a39.71 39.71 0 0 0 1.24 5.5c1.38 4.25-1.31 11-6.36 16-2.5 2.45-4.54 5.06-4.54 5.79a9.67 9.67 0 0 1-1.61 3.78 15.82 15.82 0 0 0-1.68 7l-.07 4.51-5.57.08a57.94 57.94 0 0 0-7.57.5c-1.82.39-15.44.53-21.5.22-1.37-.07-8.46.21-15.75.61-9.77.5-13.29.39-13.29-.45z"/><path id="path176" class="cls-1" d="M736.7 237.17c-3.56-5.77-5.06-7.24-9.42-9.28a181.76 181.76 0 0 0-27.12-9.44c-5.93-1.52-7.19-2.24-8.74-5-1.76-3.15-1.76-3.29.18-5.22a6.94 6.94 0 0 1 4-2c3.71 0 12.36-3.23 15.79-5.9 8.25-6.42 17-11.33 18.47-10.41.46.28-.1 1.17-1.25 2-2.75 1.92-5.12 6.63-4.14 8.21.8 1.29 2.87 1.91 6.79 2 1.22 0 4.5 2.1 7.29 4.58 5.74 5.1 6.58 5.15 20.49 1.34 13.66-3.74 25.31-3.39 26.92.81a1.77 1.77 0 0 0 2.32.92c2.91-.92 11.93 3.89 13.69 7.29 2 3.93 2 4.86-.35 5.6-4.42 1.4-7.1 1.71-17.08 2-5.78.16-11.77.79-13.32 1.41a23.23 23.23 0 0 1-7.06 1.12c-3.56 0-4.61.49-6.46 3-1.33 1.8-3.12 3-4.49 3-2.08 0-9.67 5.85-9.67 7.46a4.55 4.55 0 0 1-1.33 2c-1.06 1.15-1.99.22-5.51-5.49z"/></g><path id="US-MN" class="cls-1" d="M575.24 282.24c.53-13.8 1.39-28.76 2-34.43A27.82 27.82 0 0 0 576 236c-1.7-5.62-1.7-6 0-8.86 1.53-2.58 1.66-4.59 1.08-15.69-.37-7-.83-14.75-1-17.22s-.67-14.92-1-27.65l-.69-23.15 6.9.38c21.93 1.2 22.48 1.19 23.94-.27a5.55 5.55 0 0 0 1.45-3.38c0-2.2.39-2.32 3-.93 1.32.71 2.07 2.65 2.57 6.69.84 6.72 2.52 8.79 7.93 9.76a14.14 14.14 0 0 1 5.56 2.11c1.06.95 4.54 1.46 10.84 1.59 9 .19 9.4.3 12.94 3.5 2 1.82 4.34 3.32 5.16 3.34s3.51 1.41 6 3.07c4 2.68 5.24 3 11 2.87 6.65-.17 19.09 1.27 22.3 2.57 1.6.65 1.53.95-.8 3.11a9 9 0 0 1-4.77 2.41c-4.13 0-10.34 3.66-12.62 7.35a18.61 18.61 0 0 1-5.15 5.33c-1.61 1-2.93 2.08-2.93 2.51s-.62.78-1.39.78-2.06 1-2.89 2.3a32.83 32.83 0 0 1-6.07 5.75c-5.25 4-5.64 4.67-6.33 11.45-.28 2.75-.66 5.9-.84 7s-.37 2.24-.41 2.52-1.78 1.4-3.78 2.46c-4 2.17-6.43 6-5.61 9s.74 15.73-.15 18.23c-.6 1.69-.22 2.78 1.54 4.5 6 5.84 20.23 18.41 22.25 19.66s4.55 6.15 4.55 9c0 1-9.63 1.2-46.8.94l-46.8-.32z"/><path id="US-MO" class="cls-1" d="M695.59 490c-1.37-.63-2.61-1.2-2.75-1.28a22.32 22.32 0 0 1 .61-4.77c1.5-8 3.8-7.64-47.43-7.94l-44.93-.26-.14-2.5c-.68-11.85-.29-20 1.29-27 .58-2.56.49-23.53-.13-32.5-.19-2.75-.39-6-.43-7.22s-1.7-3.83-3.67-5.8c-3.37-3.37-3.49-3.72-2.1-5.85 2.82-4.3 2.44-7-1.47-10.46a14.6 14.6 0 0 1-4.72-7.55c-.61-2.4-1.36-5.06-1.68-5.89-.49-1.28.41-1.47 5.73-1.22 3.47.17 19.59.61 35.82 1s30.26 1.09 31.19 1.59a3.16 3.16 0 0 1 1.59 2.65 99.33 99.33 0 0 0 1.79 14.25c.29 1.38 3.21 5.2 6.49 8.5 3.82 3.84 6.32 7.34 7 9.73a13.05 13.05 0 0 0 4.59 6.5c8.26 6.4 7.57 4.87 6.08 13.51-.74 4.26-1.08 8.11-.77 8.55s4.06 3.42 8.33 6.61 8.16 6.54 8.64 7.45a33.49 33.49 0 0 1 1.55 7.61c.76 6.63 1.11 7.54 2.87 7.54.82 0 1.1 1.38.86 4.25a9.14 9.14 0 0 1-3.53 7.08c-2.44 2.18-3.4 4.13-4.19 8.49-1.08 6.05-2.19 6.87-6.49 4.93z"/><path id="US-MS" class="cls-1" d="M707.25 646.8c-3.72-3.12-3.82-3.38-4.15-10.85-.19-4.21-.57-8-.85-8.47s-6.5-1-13.83-1.15-15.12-.46-17.32-.61-5-.32-6.25-.38c-3.64-.17-2.85-5 2.34-14.34a128.51 128.51 0 0 0 7-15c2.29-6.29 2.34-6.92.89-9.73-1.07-2.06-1.73-7.16-2.11-16.27-.65-15.7.29-19.82 6.42-27.93 2.46-3.26 4.37-7 4.74-9.39.77-4.88 1.48-6.21 5.17-9.72l2.92-2.78 21.67-.57 21.67-.57v2.85c0 1.57-.43 6.67-.94 11.35s-1.21 11.88-1.56 16-.8 8.63-1 10c-1 7.31-1.81 34.71-1.64 58.75l.19 27.25-2.27.06c-8.62.22-14.33 1.27-15.75 2.91s-1.72 1.63-5.34-1.41z"/><path id="US-MT" class="cls-1" d="M435.51 229.82a12.34 12.34 0 0 0-3.42-.93c-3.2-.56-19.89-4-51.5-10.69-10.72-2.26-27.82-5.85-38-8s-20.53-4.33-23-4.91c-6.65-1.55-6.77-1.5-9 3.65-2 4.69-2.1 4.75-6.46 4.6a34.42 34.42 0 0 1-8-1.32A48.73 48.73 0 0 0 285 211c-9.44-.1-9.58-.27-12.41-15.78-2.78-15.22-4.06-20-5.41-20.09-.62 0-3.32 0-6 .08-4.86.17-4.88.16-4.18-2.6.65-2.58 3.08-5.29 4.81-5.36.41 0 .75-1.65.75-3.63a12.82 12.82 0 0 1 2-6.35c3-4.26 2.92-9-.29-12.48a25.21 25.21 0 0 1-4.31-8.44 50.45 50.45 0 0 0-4.52-10.26c-4.47-7.27-4.88-17.48-1.3-32.84l2.73-11.72L269 85.44c11.31 3.63 58.43 16.75 65.12 18.13 1.65.34 8.18 2 14.5 3.67 9.85 2.61 75 17.52 87.82 20.09a33.86 33.86 0 0 1 5 1.26 48.43 48.43 0 0 0 7.15 1.07 51.1 51.1 0 0 1 6.75 1 27.67 27.67 0 0 1-.69 5.7c-1 5.76-1.59 9.05-2.57 15.3-.34 2.13-.8 4.83-1 6-.39 2-.76 4.11-1.92 11.12-1.81 10.87-9.66 56.5-10.11 58.75-.55 2.35-2.28 3.47-3.54 2.29z"/><path id="US-ND" class="cls-1" d="M567.36 222.69a52 52 0 0 0-6.27-.88c-3.3-.35-7.12-.84-8.5-1.08s-4.53-.69-7-1l-8-1c-5.63-.73-10.12-1.29-16-2-3-.37-6.64-.84-8-1.06s-11.52-1.54-22.5-2.93-21.31-2.74-23-3c-4.21-.66-9-1.28-16.08-2.06l-6.08-.67 2.74-16.14c1.51-8.88 3-17.6 3.33-19.39s.79-4.49 1-6 1.6-9.56 3-17.89 2.55-15.47 2.55-15.87c0-.64 12.93 0 17.74.94 1 .18 4.91.63 8.76 1s8.13.83 9.5 1 5.2.64 8.5 1 7.57.83 9.5 1.07c6.24.78 29.36 3.48 34.5 4 2.75.29 6.57.72 8.5.94l9 1.05c3 .35 5.76 1.06 6.07 1.56s.68 8.22.83 17.15.41 17.81.59 19.73c.29 3 1.52 27.75 1.89 38 .12 3.29-.07 3.51-3.11 3.6a14.3 14.3 0 0 1-3.46-.07z"/><path id="US-NE" class="cls-1" d="M577.09 380.07l-13-1.3c-3.3-.33-12.07-1.27-19.5-2.09s-15.75-1.72-18.5-2-6.57-.71-8.5-.95c-4.46-.56-9.9-1.15-23-2.52-5.78-.6-11.62-1.27-13-1.47-2.14-.32-16.55-1.78-19.5-2-1.39-.09-1-8.33 1.06-21 .82-5.13 2.31-4.65-31.56-10.14-1.37-.22-3.65-.64-5.05-.92l-2.55-.52 4-23.71c2.19-13 4.11-23.88 4.26-24.09s23.38 2.45 36.86 4.39c1.65.24 8.85 1.15 16 2s14.13 1.76 15.5 2 4.93.66 7.9 1 6.12.79 7 1 4.52.61 8.1 1c9.82 1 13.31 2.2 16.55 5.62 2.88 3 3.12 3.1 9.75 2.52 5.73-.5 7.46-.25 11 1.56a45 45 0 0 0 6.7 2.82c2.11.57 2.52 1.29 2.6 4.65a26.54 26.54 0 0 0 2.66 9.08 39.55 39.55 0 0 1 3.26 11.45c.38 3.49.83 7 1 7.85s.62 4.65 1 8.5a36 36 0 0 0 3.32 12c1.95 3.77 6 14.48 6.15 16.19-.01.13-.08.12-10.51-.92z"/><path id="US-NH" class="cls-1" d="M1028.84 272.51c-1.24-.23-2.28-.73-2.31-1.1s-.29-8.69-.58-18.48l-.51-17.8 3.59-4c2.57-2.84 3.45-4.61 3.08-6.2-2.44-10.75-2.45-11-.39-13.92 3.07-4.31 4.26-3.81 5.24 2.19.67 4.11 3.35 13.89 7.3 26.58 2.59 8.34 6.78 15.73 10 17.72a4.36 4.36 0 0 1 1.31 3.36c0 1.93-.39 2.41-1.6 1.95s-3.13.9-6.12 3.85c-3.62 3.57-5.45 4.59-9.15 5.09-2.55.34-5.3.75-6.13.89a13 13 0 0 1-3.73-.13z"/><path id="US-NJ" class="cls-1" d="M992.77 381.09c-5.49-2.72-7.24-5.44-7.08-11a27.41 27.41 0 0 0-.24-5.54c-.2-.63 2-3.62 4.88-6.67s5.25-6 5.25-6.53-1.81-2.43-4-4.18c-5-3.94-6.55-6.6-5-8.46 1.14-1.37 1.43-2.61 2.44-10.47.32-2.45.94-4.81 1.38-5.26 1.21-1.21 15.44 3.91 17.4 6.26a3.84 3.84 0 0 1 .85 4.3c-1 2.62 0 8.54 2.26 13.93a14.38 14.38 0 0 1 1.16 6.5c-.25 1.49-.64 4.06-.87 5.71-.69 5-8.27 20-11 21.84-3.09 2.07-2.27 2.12-7.43-.43z"/><path id="US-NV" class="cls-2" d="M172.79 431.95c-1.77-3.42-5.39-10.27-8-15.22s-8.11-15.3-12.14-23-7.66-14.45-8.06-15-3.54-6.4-7-13-7.61-14.47-9.26-17.5-5-9.32-7.49-14-6.3-11.87-8.52-16c-6.79-12.66-7.19-9.77 6.85-49.35 6.83-19.28 12.83-35.45 13.32-35.95.9-.9 9.85 2 37.6 12.32 7.7 2.85 21.2 7.43 30 10.16l26.91 8.35c6 1.86 11 3.53 11.2 3.71s-32.69 114.81-35.49 123.26a47.38 47.38 0 0 0-1.43 5.5 84.9 84.9 0 0 1-3.35 10c-3.09 8-2.68 7.69-9.91 6.69-5.66-.78-10.2 7.46-10.37 18.81-.13 6.87-1.38 6.93-4.86.22z"/><path id="US-NY" class="cls-1" d="M1012.27 336.87a12.22 12.22 0 0 1 .06-4.22c.75-4.92-2.69-7.74-14-11.41-10.09-3.29-11.13-4-19.61-13.88L975 303l-17 2.63c-9.32 1.45-18.07 2.82-19.45 3.06s-11.5 1.82-22.5 3.52-20.73 3.32-21.63 3.59c-1.07.32-1.82-.26-2.2-1.69-.57-2.17 2.29-6.16 11.07-15.49 1.79-1.9 3.25-3.9 3.25-4.45a29.65 29.65 0 0 0-2.5-5.93c-3-5.85-3.08-7-.75-7a7.34 7.34 0 0 0 3.56-1.4c1.31-1 5.68-1.41 15.8-1.51 15.21-.15 16.91-.51 21.74-4.58 5.12-4.31 6.38-8.4 4.75-15.41l-1.36-5.81 5.85-6.76c3.22-3.72 6.82-8.16 8-9.87a47.41 47.41 0 0 1 7.47-7.36l5.31-4.25 8.31.18c4.57.1 9.28-.14 10.47-.54 1.82-.61 2.32-.21 3.2 2.57 1.6 5.05 2.26 9.66 2.48 17.39.17 6 .6 7.54 2.8 10.16 5.08 6 9.41 28.38 8.63 44.48-.35 7.09-.08 11.66.85 14.77a32.75 32.75 0 0 1 1.37 7.25c0 1.51.45 2.75 1 2.75s.64.89 0 2.46-.58 2.68 0 3.06 1 .19 1-.3c0-1.26 4.83-3.37 9-3.94a16.76 16.76 0 0 0 6.5-2.71c4.41-3.29 9.66-4.93 10.65-3.33.49.8-.22 2.15-1.93 3.67-1.49 1.33-4.31 3.91-6.26 5.75-4.06 3.82-19.57 10.68-20.21 8.91z"/><path id="US-OH" class="cls-1" d="M844.13 414.75c-1.85-2.24-2.43-2.34-10.05-1.82-10.13.69-18-.91-21.65-4.36a12.07 12.07 0 0 0-7.26-3.09c-4.48-.51-4.58-.59-4.65-4.14 0-2-.24-7.22-.46-11.62s-.63-13.48-.93-20.17-.82-16.71-1.15-22.25c-.48-8.07-.33-10.1.75-10.18.74-.05 2.48-.21 3.85-.35s7-.59 12.5-1 10.22-.77 10.5-.81a50.34 50.34 0 0 1 6.43 2.75c6.31 3 11.79 3.45 14.46 1.2a27.7 27.7 0 0 1 6.19-3 25.09 25.09 0 0 0 6.5-3.43c6.49-5.89 16.32-12.14 16.5-10.5a266.61 266.61 0 0 1-.47 54.28 55.8 55.8 0 0 1-2.13 6.84c-1.57 4.34-2.75 5.81-6.21 7.84-4.9 2.87-7.72 6.44-8.71 11-.53 2.47-1.35 3.33-3.63 3.83s-3.08 1.37-3.48 3.32c-.72 3.52-2.71 7.44-4 7.79-.49.12-1.82-.82-2.9-2.13z"/><path id="US-OK" class="cls-1" d="M590 547.1c-4.32-2.35-8.4-3.84-10.5-3.83-1.89 0-10.63.26-19.43.57-13.52.47-16.7.3-20.5-1.13a49.18 49.18 0 0 0-8-2.22c-2.09-.32-5.24-2.06-7.84-4.35-3.27-2.87-5.49-4-9-4.37-9.36-1.12-13.64-2.55-16.33-5.49-1.57-1.71-5-3.63-8.34-4.69l-5.67-1.79.57-5c.31-2.77.82-8.19 1.13-12s.76-8.57 1-10.5.69-7.1 1-11.5.81-9.19 1.08-10.65c.58-3-.07-3.63-4.75-4.31-5.43-.79-33.59-4.47-43.37-5.66-12.54-1.54-11.87-1.14-11.13-6.56a31.61 31.61 0 0 1 .9-4.91 47.22 47.22 0 0 1 7.25 1.07c3.84.73 10.59 1.61 15 2s10 .83 12.5 1.06 7.43.68 11 1 8.53.76 11 1 7.43.69 11 1l11 1c2.47.23 7.88.69 12 1s9.07.77 11 1 6.88.67 11 1 9.07.78 11 1 7.32.68 12 1 9.63.78 11 1 6.32.66 11 1 8.56.74 8.63.82c.51.58 1.49 29.7 1.36 40.65-.29 26.6-.75 45.09-1.12 45.4-.18.09-3.53-1.5-7.44-3.61z"/><path id="US-OR" class="cls-1" d="M156.09 236.67c-14.3-5.21-30.72-11.24-36.5-13.38-15.89-5.9-55.27-20.15-63-22.81a49.19 49.19 0 0 1-4.85-1.83c-.19-.16.13-1.78.71-3.61a46.68 46.68 0 0 0 1.52-7.4c1.1-9.75 3.4-14.67 10.45-22.41a113.16 113.16 0 0 0 11-14.5c4.78-7.94 24.12-46.92 24.12-48.61 0-.66.71-.82 1.75-.39s3.18 1.13 4.94 1.64c3.08.89 8.16 5.8 8.47 8.19.08.65.26 1.62.38 2.17a38.66 38.66 0 0 1 .35 4.56c.16 5.08 2.84 7.4 10.26 8.91a90.54 90.54 0 0 1 14.86 5 73.18 73.18 0 0 0 13 4.49l6 1c.82.15 6 .59 11.4 1 11.39.82 14.36 1.55 32 7.89 7.1 2.55 13 4.63 13.08 4.63s.24.56.32 1.25.67 4.05 1.3 7.48l1.15 6.23-3.63 4c-2 2.21-3.63 4.41-3.63 4.88 0 1.56-5.44 6.91-8.63 8.5-3.72 1.85-4.57 4.52-3.56 11.19s1 6.75-2.21 9.76c-2.23 2.07-3 3.79-3.3 7.43-.38 4.47-10.22 34.26-11.3 34.2-.23.03-12.15-4.25-26.45-9.46z"/><path id="US-PA" class="cls-1" d="M885.78 377.54a52.85 52.85 0 0 1-2.26-9.31c-1.46-8.38-1.57-8.9-1.93-9.25s-.73-4-1.45-18.25c-.39-7.7-.84-15.6-1-17.55-.25-2.92.16-3.84 2.33-5.21 1.45-.92 3.65-2.41 4.89-3.32 2.2-1.62 2.27-1.58 2.89 1.56l.64 3.22 5.46-.68c3-.37 6.42-.85 7.61-1.05s5.07-.83 8.65-1.39l10.5-1.66c2.2-.36 14.71-2.31 27.79-4.35l23.79-3.7 3.46 3.83c1.9 2.11 3.46 4.26 3.46 4.79s1.57 2 3.49 3.34 3.3 2.57 3.06 2.81c-.5.5-1.27 4.42-2.18 11.16-.35 2.62-1 5-1.51 5.31-2.33 1.44-.7 5.89 3.6 9.84l4.47 4.1-6 6.13c-3.3 3.37-7.22 6.6-8.72 7.18s-8.58 2-15.73 3.23l-15 2.51-20 3.43c-23.41 4-21.75 3.78-31.18 4.5-7.26.52-8.29.39-9.13-1.22z"/><path id="US-RI" class="cls-1" d="M1044.29 303.48c-1-3.71-2-7.76-2.34-9-.54-2.06-.25-2.25 3.42-2.25s4.24.36 7.29 5.11c2.51 3.91 3 5.49 2.26 6.75-1 1.64-7.07 6.14-8.26 6.14-.34 0-1.41-3.04-2.37-6.75z"/><path id="US-SC" class="cls-1" d="M899.46 583.67c-1.39-.73-3.62-3.38-5-5.88s-2.69-4.56-3-4.56c-1.39 0-5.89-5.4-5.89-7.08 0-1-1.69-3.84-3.75-6.32s-5.09-6.26-6.73-8.38a60.56 60.56 0 0 0-8.5-8.22 76.76 76.76 0 0 1-10.52-10.77c-2.75-3.52-6.61-7.23-8.57-8.24-4.66-2.41-6-4.1-5.27-6.8.64-2.43 5.45-4.89 16.94-8.68 12.06-4 33.4-3 33.4 1.59 0 .69 4.21 1 12.39.76 9.71-.23 12.79 0 14.22 1.17 1 .8 2.52 2 3.36 2.65s4.23 3.4 7.53 6.11a72 72 0 0 0 10.5 7.19c2.47 1.24 4.69 2.43 4.91 2.63s-1.39 2.51-3.59 5.13c-4.9 5.83-5.86 7.65-6.76 12.76a13.41 13.41 0 0 1-4.38 7.52c-2 1.94-5.48 5.67-7.68 8.28s-7.85 8.3-12.55 12.61c-8.16 7.53-8.63 7.8-11.06 6.53z"/><path id="US-SD" class="cls-1" d="M562.19 305.59c-4.12-2.14-5.86-2.48-11-2.1-5.73.42-6.36.25-10.22-2.87-4.17-3.36-7.43-4.21-22.38-5.89-3-.34-6.18-.79-7-1s-4.2-.65-7.5-1-7.12-.78-8.5-1-4.53-.61-7-.92l-8.5-1.06c-2.2-.27-8.95-1.16-15-2s-13.7-1.78-17-2.15c-13.79-1.56-15-1.89-14.81-4s5.91-36 6.78-40.42c.27-1.35.73-4.05 1-6s1.34-8.27 2.31-14c1.7-10 1.88-10.5 4.23-10.43 2.67.08 15 1.38 17.76 1.87 2.47.44 10 1.44 15.69 2.09 2.75.31 6.13.76 7.5 1s5.2.69 8.5 1 6.68.77 7.5 1 7.35 1.1 14.5 2c13.21 1.62 39.54 5.06 45 5.88 1.65.25 4.25.49 5.79.53 2.42.07 2.65.33 1.76 2-.75 1.41-.49 3.57 1 8.25 1.34 4.17 1.84 7.71 1.48 10.34-.9 6.45-1.5 15.12-2 28.92-.26 7.11-.9 13.19-1.43 13.51s-.88 4.75-.77 9.83c.28 10.64.19 10.71-7.69 6.62z"/><path id="US-UT" class="cls-2" d="M242.53 268.85c-.75 0-1.11.4-1.34 1.22s-2.49 8.63-5 17.16-6.15 21.13-8.16 28-5.19 17.9-7.09 24.5-5.06 17.4-7 24-3.91 13.35-4.37 15-1.73 6.16-2.84 10a68.44 68.44 0 0 0-1.84 7.09c.1.06 21.79 5.53 48.19 12.16 47.2 11.84 50.5 12.62 50.5 11.91 0-.2 3.17-14.48 7.06-31.75s7.3-32.53 7.56-33.91 1.83-8.5 3.5-15.84 3.24-14.52 3.5-15.94a14.08 14.08 0 0 1 .94-3.31c.25-.4-1.47-1-3.81-1.44-8.22-1.38-34.62-7.27-35.75-8a1.85 1.85 0 0 1-.59-2.16c.84-2.18 5.81-20.65 6-22.19.12-1.15-16.75-6.89-47.59-16.19a6.39 6.39 0 0 0-1.87-.31z"/><g id="US-VA"><path id="path201" class="cls-1" d="M845.56 459.9c8.12-9.69 13.15-13.95 15.46-13.06.86.33 1.57 1 1.57 1.38s1.56 1.08 3.48 1.43c2.6.49 6.28-.28 14.62-3 10-3.33 11.27-4 12.43-6.79a30.25 30.25 0 0 1 3.21-5.59c1.05-1.37 3.41-6.32 5.24-11a93 93 0 0 1 3.93-9.17c.33-.37 2.4-.94 4.6-1.27 6.74-1 7.21-1.37 7.92-5.81.55-3.42 1.67-5.08 6.1-9 3-2.66 5.39-5.15 5.33-5.53-.37-2.6.25-3.1 2.7-2.16 4.06 1.54 7.27 1.16 8.42-1 1.05-2 1.07-2 3 0a7 7 0 0 0 2.85 2 22.82 22.82 0 0 1 4.51 1.52c3.59 1.5 3.61 1.55 2 4s-1.53 2.78.14 6.47c1.45 3.21 2.94 4.51 7.89 6.9a64.06 64.06 0 0 0 8.88 3.63c3.11.76 5.17 3.6 3.68 5.09-.6.6.15 2.23 2 4.4 2.33 2.73 3 4.43 3 8.12 0 3.93.53 5.11 3.17 7.5 6.37 5.77 6.87 6.38 6.87 8.33 0 1.1-.56 2-1.25 2.07-1.85.11-5.42.77-13.25 2.44-7 1.49-35.08 5.8-45.5 7-3 .34-6.18.79-7 1s-4 .65-7.14 1-6.47.76-7.5 1q-4.93.93-21.86 2.58c-6.05.59-12.8 1.26-15 1.49s-9.4.69-16 1a132.61 132.61 0 0 0-13.83 1.14c-1.02.17 1.23-3.22 5.33-8.11z"/><path id="path203" class="cls-1" d="M984.09 436.22c-.86-1.39.45-9.71 2.25-14.26.82-2.07 1.26-4.62 1-5.66-.53-2 1.53-3 6.13-3.06 1.86 0 2.2.35 1.61 1.74-.41 1-1.47 3.76-2.36 6.21a21.8 21.8 0 0 1-3.36 6.25c-2 2.08-2.23 3.46-.6 4 .79.26.59 1.24-.61 3.08-1.89 2.86-3.05 3.35-4.06 1.7z"/></g><path id="US-VT" class="cls-1" d="M1011.59 273c0-4.1-4.9-19-7-21.23-1.47-1.57-2.06-3.93-2.39-9.56a82.76 82.76 0 0 0-1-10c-.34-1.37-.89-4.12-1.21-6.1l-.59-3.6 9.35-2.15c5.14-1.18 11.43-2.43 14-2.77l4.62-.62.7 4.66c.64 4.27.44 5-2.43 8.22l-3.13 3.56.31 20.39c.27 17.58.11 20.4-1.19 20.44-.82 0-3.41.29-5.75.59-4.02.55-4.29.43-4.29-1.83z"/><path id="US-WA" class="cls-1" d="M201.38 142.55c-14.47-5.21-21.39-6.72-35.29-7.71-10.52-.75-16.34-2.14-24.56-5.87a81.65 81.65 0 0 0-13.94-4.74c-3.57-.75-7-2.07-7.72-2.93s-1.23-3.85-1.25-6.63c0-4.55-.46-5.51-4.28-9.59-3.11-3.31-5.5-4.84-8.9-5.68l-4.65-1.15.84-3.76c1-4.6 5.55-33 6.87-43.17.53-4.07 1.55-7.77 2.26-8.21 1.5-.93 4.18.64 11.32 6.64 4.31 3.62 16.11 8.9 20 9 .55 0 .86-1.41.68-3.15-.24-2.4 2.62-11.62 4.38-14.15.12-.17 2.85.79 6.07 2.13s23.41 9.08 44.86 17.2 39.17 14.91 39.38 15.09-1.66 6.07-4.17 13.1l-10.25 28.78c-3.91 11-5.9 18.23-6.33 23.06l-.63 7.06z"/><path id="US-WI" class="cls-1" d="M697 316.23c-20-.66-20.45-.95-21.9-13.49-1.49-12.86-5.49-24.68-8.9-26.3-1.18-.56-6.6-5.11-12.05-10.09l-9.9-9.06v-12.24c0-10.61.26-12.38 1.78-13.27 5.83-3.41 7.49-5.68 7.61-10.37.19-7.42 1.14-10.46 3.38-10.77 3.6-.49 18.95-5.44 19.94-6.43 1.65-1.65 2.4-1.07 2.11 1.61-.22 2 .31 2.8 2.27 3.54 3.18 1.21 6.71 4.7 7.58 7.5.52 1.68 2.68 2.69 10.38 4.87 11.81 3.34 26 8.34 28.85 10.21 3.18 2 9 12.2 9.84 17 .39 2.34 1.25 4.25 1.93 4.25 1.94 0 5.69-4 7.22-7.64 1.72-4.12 3.93-4.59 2.84-.61a19 19 0 0 0-.62 5c.07 1.24-.28 2.25-.79 2.25-2.07 0-4 3.33-5 8.75-1.43 7.52-3 13.29-4.24 15.64-2.69 5.09-3.59 18.3-2.25 32.93l.72 7.82-12.8-.28c-7.11-.18-19.68-.55-28-.82z"/><path id="US-WV" class="cls-1" d="M866.7 446.07c-6.42-2.38-17.86-15.11-18.56-20.66-.28-2.21.41-4.09 2.51-6.86 1.59-2.1 2.9-4.85 2.92-6.12 0-1.66 1-2.7 3.41-3.71 2.67-1.11 3.52-2.16 4-4.95q1.2-6.41 8.91-10.84c4.92-2.83 8.66-11.41 8.66-19.9 0-7.71 1.59-8.19 2.43-.73 1 9.1 2.5 10.14 13.84 9.74l9.13-.32 1.09 5c1 4.47 1.35 5 3.55 4.74 1.36-.14 5-2 8.07-4.18 6.72-4.7 16.2-7.15 20.34-5.27 2.92 1.33 3.11 2.07 1.2 4.69-1.32 1.81-1.49 1.8-5.64-.37-4.76-2.48-5.62-2.12-6.47 2.73-.57 3.25-4.8 7.86-8.56 9.33-1.11.43-2 2.32-2.41 5.31-.75 5-1 5.19-7.35 5.83a17.41 17.41 0 0 0-4.55.81c-.14.21-2 4.65-4.05 9.88a101.61 101.61 0 0 1-6.7 13.92 27.37 27.37 0 0 0-2.91 5.12c0 .65-5.62 2.83-16 6.21-2.97.98-5.3 1.18-6.86.6z"/><path id="US-WY" class="cls-1" d="M410.59 333.2l-15.5-3.39c-3.85-.85-14.65-3.15-24-5.11-19.6-4.12-60.51-12.8-71.5-15.18-4.12-.89-8.07-1.62-8.76-1.63s-1.06-.72-.8-1.59 1.18-4.51 2.05-8.08 2-7.62 2.53-9a35.75 35.75 0 0 0 1.44-5.57c.51-3.11 3.52-16 10.5-44.93 2.12-8.8 4.37-18.53 5-21.62s1.7-6.4 2.4-7.35c1.39-1.9 1.17-1.94 50.65 8.48 15.21 3.2 39.24 8.24 49.5 10.39l12.32 2.58 11.32 2.38-.46 3.57c-.25 2-3.23 19.77-6.62 39.57s-6.35 37.13-6.57 38.5c-.73 4.47-1.42 8.4-2.47 13.89-.56 3-1 5.55-1 5.75-.03.51-.42.44-10.03-1.66z"/><path id="US-ID-2" data-name="US-ID" class="cls-1" d="M289.09 281.51c-2.2-.66-17.28-5.34-33.5-10.39l-39-12.14c-5.22-1.63-14.15-4.36-19.84-6.07-12-3.62-11.48-1.43-4.88-19.79 2.47-6.87 4.79-14.75 5.16-17.5a12.88 12.88 0 0 1 3.72-8.16c2.9-3 3-3.43 2.37-9-.37-3.2-.7-6.06-.72-6.34-.18-2.13.61-3.19 3.44-4.65 3.52-1.82 8.71-7.17 8.73-9 0-.62 1.79-2.87 4-5l3.95-3.87-1.46-8c-2.38-13.1-1.73-21 2.81-33.85 2.17-6.13 6.84-19.46 10.38-29.6s6.65-18.66 6.9-18.91c.65-.65 12.47 3 12.47 3.89 0 .39-1.14 5.16-2.52 10.59a70.54 70.54 0 0 0-2.47 17.38c0 4.13.06 8.4.07 9.49s1.74 5.15 3.84 9a54.56 54.56 0 0 1 4.58 10.51c.72 3.36 4.08 9.14 5.71 9.83 1.44.61.8 4.63-1.21 7.67a13.37 13.37 0 0 0-2 6.18c0 2.33-.56 3.36-2.06 3.84-2.33.74-3.94 4.22-3.94 8.5 0 2.43.54 3 3.38 3.82a15.82 15.82 0 0 0 5.89.45c2.15-.41 2.67 0 3.56 2.86a58.58 58.58 0 0 1 1.66 8.28 34.65 34.65 0 0 0 1 5.5 23.15 23.15 0 0 1 .95 4.07c1.34 7.82 2.54 11.31 4.66 13.57s2.82 2.31 7.83 1.79a35.72 35.72 0 0 1 12.33 1.11c3.7.93 7.52 1.44 8.5 1.14 2.86-.89 4.6.84 4 4-.27 1.57-2.62 11.64-5.23 22.36s-5.7 23.57-6.89 28.55l-2.15 9z"/><g class="cls-4"><path class="cls-1" d="M195.86-55.45L-42.11 182.51M198.5-52.81L-39.46 185.16M201.15-50.17L-36.82 187.8M203.79-47.52L-34.17 190.45M206.44-44.88L-31.53 193.09M209.08-42.23L-28.89 195.73M211.73-39.59L-26.24 198.38M214.37-36.94L-23.6 201.02M217.01-34.3L-20.95 203.67M219.66-31.66L-18.31 206.31M222.3-29.01L-15.66 208.96M224.95-26.37L-13.02 211.6M227.59-23.72L-10.37 214.25M230.24-21.08L-7.73 216.89M232.88-18.43L-5.09 219.53M235.53-15.79L-2.44 222.18M238.17-13.14L.2 224.82M240.81-10.5L2.85 227.47M243.46-7.86L5.49 230.11M246.1-5.21L8.14 232.76M248.75-2.57L10.78 235.4M251.39.08L13.42 238.04M254.04 2.72L16.07 240.69M256.68 5.37L18.71 243.33M259.33 8.01L21.36 245.98M261.97 10.66L24 248.62M264.61 13.3L26.65 251.27M267.26 15.94L29.29 253.91M269.9 18.59L31.94 256.56M272.55 21.23L34.58 259.2M275.19 23.88L37.22 261.84M277.84 26.52L39.87 264.49M280.48 29.17L42.51 267.13M283.12 31.81L45.16 269.78M285.77 34.45L47.8 272.42M288.41 37.1L50.45 275.07M291.06 39.74L53.09 277.71M293.7 42.39L55.73 280.36M296.35 45.03L58.38 283M298.99 47.68L61.02 285.64M301.64 50.32L63.67 288.29M304.28 52.97L66.31 290.93M306.92 55.61L68.96 293.58M309.57 58.25L71.6 296.22M312.21 60.9L74.25 298.87M314.86 63.54L76.89 301.51M317.5 66.19L79.53 304.15M320.15 68.83L82.18 306.8M322.79 71.48L84.82 309.44M325.44 74.12L87.47 312.09M328.08 76.76L90.11 314.73M330.72 79.41L92.76 317.38M333.37 82.05L95.4 320.02M336.01 84.7L98.05 322.67M338.66 87.34L100.69 325.31M341.3 89.99L103.33 327.95M343.95 92.63L105.98 330.6M346.59 95.28L108.62 333.24M349.23 97.92L111.27 335.89M351.88 100.56L113.91 338.53M354.52 103.21L116.56 341.18M357.17 105.85L119.2 343.82M359.81 108.5L121.84 346.47M362.46 111.14L124.49 349.11M365.1 113.79L127.13 351.75M367.75 116.43L129.78 354.4M370.39 119.08L132.42 357.04M373.03 121.72L135.07 359.69M375.68 124.36L137.71 362.33M378.32 127.01L140.36 364.98M380.97 129.65L143 367.62M383.61 132.3L145.64 370.26M386.26 134.94L148.29 372.91M388.9 137.59L150.93 375.55M391.55 140.23L153.58 378.2M394.19 142.87L156.22 380.84M396.83 145.52L158.87 383.49M399.48 148.16L161.51 386.13M402.12 150.81L164.16 388.78M404.77 153.45L166.8 391.42M407.41 156.1L169.44 394.06M410.06 158.74L172.09 396.71M412.7 161.39L174.73 399.35M415.34 164.03L177.38 402M417.99 166.67L180.02 404.64M420.63 169.32L182.67 407.29M423.28 171.96L185.31 409.93M425.92 174.61L187.95 412.57M428.57 177.25L190.6 415.22M431.21 179.9L193.24 417.86M433.86 182.54L195.89 420.51M436.5 185.19L198.53 423.15M439.14 187.83L201.18 425.8M441.79 190.47L203.82 428.44M444.43 193.12L206.47 431.09M447.08 195.76L209.11 433.73M449.72 198.41L211.75 436.37M452.37 201.05L214.4 439.02M455.01 203.7L217.04 441.66M457.65 206.34L219.69 444.31M460.3 208.98L222.33 446.95M462.94 211.63L224.98 449.6M465.59 214.27L227.62 452.24"/></g><path id="US-GA-2" data-name="US-GA" class="cls-2" d="M875.5 631.46c-1.39-2.23-1.46-2.23-30.63-2.23h-29.22l-.88-3.25c-.49-1.79-1.4-3.14-2-3s-1.14.07-1.14-.14-.73-4.15-1.62-8.75a80.29 80.29 0 0 1-1.32-15.36c.65-15.19.31-18.35-2.42-22.47-2.43-3.67-3.93-9.92-5.29-22a96.81 96.81 0 0 0-2.85-12.5c-3.84-13.09-5.69-21.38-5-22.46a3.47 3.47 0 0 1 2.83-.87c2.08.13 15.1-.82 22.7-1.66 1.93-.21 7.42-.67 12.2-1l8.7-.64-.85 3c-.73 2.54-.46 3.35 1.8 5.46a15.79 15.79 0 0 0 4.82 3.14c1.19.36 4.74 3.79 7.88 7.63a85.94 85.94 0 0 0 10.83 11c6.1 4.77 15.52 16.42 19.13 23.66 1.42 2.86 3.37 5.45 4.33 5.75s2.57 2 3.59 3.8c2.55 4.46 6.66 8.75 8.38 8.75.92 0 1.22.62.84 1.75-.32 1-2.17 6.25-4.1 11.75-2.44 7-3.51 11.77-3.53 15.81 0 4.21-.34 5.61-1.2 5.08-1.25-.77-10.2-.65-12.93.17-1.28.39-1.47 1.26-.92 4.27a14.39 14.39 0 0 1 0 5.71c-.7 1.75-.79 1.74-2.13-.4z"/><g class="cls-5"><path class="cls-2" d="M586.76 355.11L43.44 898.43M591.49 355.11L48.18 898.43M596.22 355.11L52.91 898.43M600.95 355.11L57.64 898.43M605.69 355.11L62.37 898.43M610.42 355.11L67.1 898.43M615.15 355.11L71.83 898.43M619.88 355.11L76.57 898.43M624.61 355.11L81.3 898.43M629.35 355.11L86.03 898.43M634.08 355.11L90.76 898.43M638.81 355.11L95.49 898.43M643.54 355.11L100.23 898.43M648.27 355.11L104.96 898.43M653 355.11L109.69 898.43M657.74 355.11L114.42 898.43M662.47 355.11L119.15 898.43M667.2 355.11L123.88 898.43M671.93 355.11L128.62 898.43M676.66 355.11L133.35 898.43M681.39 355.11L138.08 898.43M686.13 355.11L142.81 898.43M690.86 355.11L147.54 898.43M695.59 355.11L152.27 898.43M700.32 355.11L157.01 898.43M705.05 355.11L161.74 898.43M709.79 355.11L166.47 898.43M714.52 355.11L171.2 898.43M719.25 355.11L175.93 898.43M723.98 355.11L180.67 898.43M728.71 355.11L185.4 898.43M733.44 355.11L190.13 898.43M738.18 355.11L194.86 898.43M742.91 355.11L199.59 898.43M747.64 355.11L204.32 898.43M752.37 355.11L209.06 898.43M757.1 355.11L213.79 898.43M761.83 355.11L218.52 898.43M766.57 355.11L223.25 898.43M771.3 355.11L227.98 898.43M776.03 355.11L232.71 898.43M780.76 355.11L237.45 898.43M785.49 355.11L242.18 898.43M790.23 355.11L246.91 898.43M794.96 355.11L251.64 898.43M799.69 355.11L256.37 898.43M804.42 355.11L261.11 898.43M809.15 355.11L265.84 898.43M813.88 355.11L270.57 898.43M818.62 355.11L275.3 898.43M823.35 355.11L280.03 898.43M828.08 355.11L284.76 898.43M832.81 355.11L289.5 898.43M837.54 355.11L294.23 898.43M842.27 355.11L298.96 898.43M847.01 355.11L303.69 898.43M851.74 355.11L308.42 898.43M856.47 355.11L313.15 898.43M861.2 355.11L317.89 898.43M865.93 355.11L322.62 898.43M870.67 355.11L327.35 898.43M875.4 355.11L332.08 898.43M880.13 355.11L336.81 898.43M884.86 355.11L341.55 898.43M889.59 355.11L346.28 898.43M894.32 355.11L351.01 898.43M899.06 355.11L355.74 898.43M903.79 355.11L360.47 898.43M908.52 355.11L365.2 898.43M913.25 355.11L369.94 898.43M917.98 355.11L374.67 898.43M922.71 355.11L379.4 898.43M927.45 355.11L384.13 898.43M932.18 355.11L388.86 898.43M936.91 355.11L393.59 898.43M941.64 355.11L398.33 898.43M946.37 355.11L403.06 898.43M951.11 355.11L407.79 898.43M955.84 355.11L412.52 898.43M960.57 355.11L417.25 898.43M965.3 355.11L421.99 898.43M970.03 355.11L426.72 898.43M974.76 355.11L431.45 898.43M979.5 355.11L436.18 898.43M984.23 355.11L440.91 898.43M988.96 355.11L445.64 898.43M993.69 355.11L450.38 898.43M998.42 355.11L455.11 898.43M1003.15 355.11L459.84 898.43M1007.89 355.11L464.57 898.43M1012.62 355.11L469.3 898.43M1017.35 355.11L474.03 898.43M1022.08 355.11L478.77 898.43M1026.81 355.11L483.5 898.43M1031.55 355.11L488.23 898.43M1036.28 355.11L492.96 898.43M1041.01 355.11L497.69 898.43M1045.74 355.11L502.43 898.43M1050.47 355.11L507.16 898.43M1055.2 355.11L511.89 898.43M1059.94 355.11L516.62 898.43M1064.67 355.11L521.35 898.43M1069.4 355.11L526.08 898.43M1074.13 355.11L530.82 898.43M1078.86 355.11L535.55 898.43M1083.59 355.11L540.28 898.43M1088.33 355.11L545.01 898.43M1093.06 355.11L549.74 898.43M1097.79 355.11L554.47 898.43M1102.52 355.11L559.21 898.43M1107.25 355.11L563.94 898.43M1111.99 355.11L568.67 898.43M1116.72 355.11L573.4 898.43M1121.45 355.11L578.13 898.43M1126.18 355.11L582.87 898.43M1130.91 355.11L587.6 898.43M1135.64 355.11L592.33 898.43M1140.38 355.11L597.06 898.43M1145.11 355.11L601.79 898.43M1149.84 355.11L606.52 898.43M1154.57 355.11L611.26 898.43M1159.3 355.11L615.99 898.43M1164.03 355.11L620.72 898.43M1168.77 355.11L625.45 898.43M1173.5 355.11L630.18 898.43M1178.23 355.11L634.91 898.43M1182.96 355.11L639.65 898.43M1187.69 355.11L644.38 898.43M1192.43 355.11L649.11 898.43M1197.16 355.11L653.84 898.43M1201.89 355.11L658.57 898.43M1206.62 355.11L663.31 898.43M1211.35 355.11L668.04 898.43M1216.08 355.11L672.77 898.43M1220.82 355.11L677.5 898.43M1225.55 355.11L682.23 898.43M1230.28 355.11L686.96 898.43M1235.01 355.11L691.7 898.43M1239.74 355.11L696.43 898.43M1244.47 355.11L701.16 898.43M1249.21 355.11L705.89 898.43M1253.94 355.11L710.62 898.43M1258.67 355.11L715.35 898.43M1263.4 355.11L720.09 898.43M1268.13 355.11L724.82 898.43M1272.87 355.11L729.55 898.43M1277.6 355.11L734.28 898.43M1282.33 355.11L739.01 898.43M1287.06 355.11L743.75 898.43M1291.79 355.11L748.48 898.43M1296.52 355.11L753.21 898.43M1301.26 355.11L757.94 898.43"/></g><path id="US-IN-2" data-name="US-IN" class="cls-1" d="M737.83 437.47c.28-2.07 2.29-6.59 4.48-10l4-6.29-.38-39.2c-.21-21.56-.55-40-.76-41-.29-1.33.28-1.75 2.33-1.75a6.35 6.35 0 0 0 3.73-1c.61-.61 9.36-1.11 21.85-1.25 17.87-.2 20.86 0 21.05 1.27 1.18 8.07 3.63 73.44 2.82 75.54-.31.8-1.75 1.47-3.2 1.47-3.47 0-3.89.36-9.66 8-6.72 8.88-7.27 9.35-10.85 9.48-1.73.06-5.61 1.56-8.64 3.34-4.9 2.87-6.26 3.2-12.5 3.05-3.85-.09-8.27.35-9.82 1-4.45 1.76-5 1.44-4.45-2.66z"/><g class="cls-6"><path class="cls-1" d="M717.45-30.22L479.49 207.75M720.1-27.58L482.13 210.39M722.74-24.93L484.78 213.03M725.39-22.29L487.42 215.68M728.03-19.64L490.06 218.32M730.68-17L492.71 220.97M733.32-14.36L495.35 223.61M735.96-11.71L498 226.26M738.61-9.07L500.64 228.9M741.25-6.42L503.29 231.54M743.9-3.78L505.93 234.19M746.54-1.13L508.58 236.83M749.19 1.51L511.22 239.48M751.83 4.15L513.86 242.12M754.48 6.8L516.51 244.77M757.12 9.44L519.15 247.41M759.76 12.09L521.8 250.06M762.41 14.73L524.44 252.7M765.05 17.38L527.09 255.34M767.7 20.02L529.73 257.99M770.34 22.67L532.37 260.63M772.99 25.31L535.02 263.28M775.63 27.95L537.66 265.92M778.28 30.6L540.31 268.57M780.92 33.24L542.95 271.21M783.56 35.89L545.6 273.85M786.21 38.53L548.24 276.5M788.85 41.18L550.89 279.14M791.5 43.82L553.53 281.79M794.14 46.47L556.17 284.43M796.79 49.11L558.82 287.08M799.43 51.75L561.46 289.72M802.07 54.4L564.11 292.37M804.72 57.04L566.75 295.01M807.36 59.69L569.4 297.65M810.01 62.33L572.04 300.3M812.65 64.98L574.69 302.94M815.3 67.62L577.33 305.59M817.94 70.26L579.97 308.23M820.59 72.91L582.62 310.88M823.23 75.55L585.26 313.52M825.87 78.2L587.91 316.17M828.52 80.84L590.55 318.81M831.16 83.49L593.2 321.45M833.81 86.13L595.84 324.1M836.45 88.78L598.48 326.74M839.1 91.42L601.13 329.39M841.74 94.06L603.77 332.03M844.39 96.71L606.42 334.68M847.03 99.35L609.06 337.32M849.67 102L611.71 339.96M852.32 104.64L614.35 342.61M854.96 107.29L617 345.25M857.61 109.93L619.64 347.9M860.25 112.58L622.28 350.54M862.9 115.22L624.93 353.19M865.54 117.86L627.57 355.83M868.18 120.51L630.22 358.48M870.83 123.15L632.86 361.12M873.47 125.8L635.51 363.76M876.12 128.44L638.15 366.41M878.76 131.09L640.79 369.05M881.41 133.73L643.44 371.7M884.05 136.37L646.08 374.34M886.7 139.02L648.73 376.99M889.34 141.66L651.37 379.63M891.98 144.31L654.02 382.28M894.63 146.95L656.66 384.92M897.27 149.6L659.31 387.56M899.92 152.24L661.95 390.21M902.56 154.89L664.59 392.85M905.21 157.53L667.24 395.5M907.85 160.17L669.88 398.14M910.5 162.82L672.53 400.79M913.14 165.46L675.17 403.43M915.78 168.11L677.82 406.07M918.43 170.75L680.46 408.72M921.07 173.4L683.11 411.36M923.72 176.04L685.75 414.01M926.36 178.68L688.39 416.65M929.01 181.33L691.04 419.3M931.65 183.97L693.68 421.94M934.29 186.62L696.33 424.59M936.94 189.26L698.97 427.23M939.58 191.91L701.62 429.87M942.23 194.55L704.26 432.52M944.87 197.2L706.9 435.16M947.52 199.84L709.55 437.81M950.16 202.48L712.19 440.45M952.81 205.13L714.84 443.1M955.45 207.77L717.48 445.74M958.09 210.42L720.13 448.39M960.74 213.06L722.77 451.03M963.38 215.71L725.42 453.67M966.03 218.35L728.06 456.32M968.67 221L730.7 458.96M971.32 223.64L733.35 461.61M973.96 226.28L735.99 464.25M976.6 228.93L738.64 466.9M979.25 231.57L741.28 469.54M981.89 234.22L743.93 472.18M984.54 236.86L746.57 474.83M987.18 239.51L749.22 477.47"/></g><path id="US-NC-2" data-name="US-NC" class="cls-1" d="M949.53 528.67a51.64 51.64 0 0 0-6.44-4c-1.65-.81-7.46-5.06-12.92-9.43l-9.92-8-11.29.41c-9.64.35-11.63.16-13.58-1.34-3.78-2.89-5.82-3.27-16.92-3.14s-18.79 1.78-28.2 6c-5.16 2.33-6.21 2.51-20.16 3.5-4.95.35-9.9.85-11 1.12-1.8.43-1.77.3.3-1.31a85.29 85.29 0 0 0 6.5-6.14 41.67 41.67 0 0 1 9.2-6.89 59.44 59.44 0 0 0 10-6.91 70.93 70.93 0 0 1 13-8.25c8.18-4 12.75-7.84 14-11.84 1-3.22 2.92-3.93 12.93-4.72 4.88-.39 9.83-.85 11-1s4.75-.63 8-1 6.82-.84 8-1 10.7-1.52 21.15-2.91 19.9-2.71 21-2.91 4.07-.67 6.59-1c7.1-1 20.69-3.54 27.54-5.09 1.65-.37 2.42.21 3.41 2.59 1.18 2.86 1.08 3.24-1.42 5.39l-2.7 2.32 4.95.68c3.69.51 5.61 1.42 7.54 3.59 3.4 3.81 3.28 5.07-.91 9.62a24 24 0 0 0-4.07 5.56c-.49 1.51-4.86 2.4-9.5 1.93-.31 0-.54 1.94-.5 4.38l.07 4.44h3.75c4.33 0 4.63.95 1.5 4.64-4.47 5.26-6.13 6.36-9.62 6.36-3.06 0-4.46 1-11.31 8.13s-7.82 8.59-7.82 11.76-.38 3.8-4 5.37c-2.2 1-4.14 1.74-4.31 1.74a32 32 0 0 1-3.84-2.65z"/><g class="cls-7"><path class="cls-1" d="M1023.01 291.41L785.04 529.38M1025.65 294.06L787.69 532.03M1028.3 296.7L790.33 534.67M1030.94 299.35L792.97 537.31M1033.59 301.99L795.62 539.96M1036.23 304.64L798.26 542.6M1038.88 307.28L800.91 545.25M1041.52 309.92L803.55 547.89M1044.16 312.57L806.2 550.54M1046.81 315.21L808.84 553.18M1049.45 317.86L811.49 555.82M1052.1 320.5L814.13 558.47M1054.74 323.15L816.77 561.11M1057.39 325.79L819.42 563.76M1060.03 328.43L822.06 566.4M1062.67 331.08L824.71 569.05M1065.32 333.72L827.35 571.69M1067.96 336.37L830 574.34M1070.61 339.01L832.64 576.98M1073.25 341.66L835.28 579.62M1075.9 344.3L837.93 582.27M1078.54 346.95L840.57 584.91M1081.19 349.59L843.22 587.56M1083.83 352.23L845.86 590.2M1086.47 354.88L848.51 592.85M1089.12 357.52L851.15 595.49M1091.76 360.17L853.8 598.13M1094.41 362.81L856.44 600.78M1097.05 365.46L859.08 603.42M1099.7 368.1L861.73 606.07M1102.34 370.75L864.37 608.71M1104.99 373.39L867.02 611.36M1107.63 376.03L869.66 614M1110.27 378.68L872.31 616.65M1112.92 381.32L874.95 619.29M1115.56 383.97L877.6 621.93M1118.21 386.61L880.24 624.58M1120.85 389.26L882.88 627.22M1123.5 391.9L885.53 629.87M1126.14 394.54L888.17 632.51M1128.78 397.19L890.82 635.16M1131.43 399.83L893.46 637.8M1134.07 402.48L896.11 640.45M1136.72 405.12L898.75 643.09M1139.36 407.77L901.39 645.73M1142.01 410.41L904.04 648.38M1144.65 413.06L906.68 651.02M1147.3 415.7L909.33 653.67M1149.94 418.34L911.97 656.31M1152.58 420.99L914.62 658.96M1155.23 423.63L917.26 661.6M1157.87 426.28L919.91 664.24M1160.52 428.92L922.55 666.89M1163.16 431.57L925.19 669.53M1165.81 434.21L927.84 672.18M1168.45 436.86L930.48 674.82M1171.09 439.5L933.13 677.47M1173.74 442.14L935.77 680.11M1176.38 444.79L938.42 682.76M1179.03 447.43L941.06 685.4M1181.67 450.08L943.71 688.04M1184.32 452.72L946.35 690.69M1186.96 455.37L948.99 693.33M1189.61 458.01L951.64 695.98M1192.25 460.65L954.28 698.62M1194.89 463.3L956.93 701.27M1197.54 465.94L959.57 703.91M1200.18 468.59L962.22 706.56M1202.83 471.23L964.86 709.2M1205.47 473.88L967.5 711.84M1208.12 476.52L970.15 714.49M1210.76 479.17L972.79 717.13M1213.41 481.81L975.44 719.78M1216.05 484.45L978.08 722.42M1218.69 487.1L980.73 725.07M1221.34 489.74L983.37 727.71M1223.98 492.39L986.02 730.35M1226.63 495.03L988.66 733M1229.27 497.68L991.3 735.64M1231.92 500.32L993.95 738.29M1234.56 502.96L996.59 740.93M1237.2 505.61L999.24 743.58M1239.85 508.25l-237.97 237.97M1242.49 510.9l-237.96 237.97M1245.14 513.54l-237.97 237.97M1247.78 516.19l-237.96 237.96M1250.43 518.83L1012.46 756.8M1253.07 521.48L1015.1 759.44M1255.72 524.12l-237.97 237.97M1258.36 526.76l-237.97 237.97M1261 529.41l-237.96 237.97M1263.65 532.05l-237.97 237.97M1266.29 534.7l-237.96 237.97M1268.94 537.34l-237.97 237.97M1271.58 539.99l-237.97 237.96M1274.23 542.63L1036.26 780.6M1276.87 545.28L1038.9 783.24M1279.52 547.92l-237.97 237.97M1282.16 550.56l-237.97 237.97M1284.8 553.21l-237.96 237.97M1287.45 555.85l-237.97 237.97M1290.09 558.5l-237.96 237.96M1292.74 561.14l-237.97 237.97"/><path class="cls-8" d="M1019.98 273.6L476.66 816.92M1024.71 273.6L481.39 816.92M1029.44 273.6L486.13 816.92M1034.17 273.6L490.86 816.92M1038.9 273.6L495.59 816.92M1043.64 273.6L500.32 816.92M1048.37 273.6L505.05 816.92M1053.1 273.6L509.78 816.92M1057.83 273.6L514.52 816.92M1062.56 273.6L519.25 816.92M1067.29 273.6L523.98 816.92M1072.03 273.6L528.71 816.92M1076.76 273.6L533.44 816.92M1081.49 273.6L538.17 816.92M1086.22 273.6L542.91 816.92M1090.95 273.6L547.64 816.92M1095.68 273.6L552.37 816.92M1100.42 273.6L557.1 816.92M1105.15 273.6L561.83 816.92M1109.88 273.6L566.57 816.92M1114.61 273.6L571.3 816.92M1119.34 273.6L576.03 816.92M1124.08 273.6L580.76 816.92M1128.81 273.6L585.49 816.92M1133.54 273.6L590.22 816.92M1138.27 273.6L594.96 816.92M1143 273.6L599.69 816.92M1147.73 273.6L604.42 816.92M1152.47 273.6L609.15 816.92M1157.2 273.6L613.88 816.92M1161.93 273.6L618.61 816.92M1166.66 273.6L623.35 816.92M1171.39 273.6L628.08 816.92M1176.12 273.6L632.81 816.92M1180.86 273.6L637.54 816.92M1185.59 273.6L642.27 816.92M1190.32 273.6L647.01 816.92M1195.05 273.6L651.74 816.92M1199.78 273.6L656.47 816.92M1204.52 273.6L661.2 816.92M1209.25 273.6L665.93 816.92M1213.98 273.6L670.66 816.92M1218.71 273.6L675.4 816.92M1223.44 273.6L680.13 816.92M1228.17 273.6L684.86 816.92M1232.91 273.6L689.59 816.92M1237.64 273.6L694.32 816.92M1242.37 273.6L699.05 816.92M1247.1 273.6L703.79 816.92M1251.83 273.6L708.52 816.92M1256.56 273.6L713.25 816.92M1261.3 273.6L717.98 816.92M1266.03 273.6L722.71 816.92M1270.76 273.6L727.45 816.92M1275.49 273.6L732.18 816.92M1280.22 273.6L736.91 816.92M1284.96 273.6L741.64 816.92M1289.69 273.6L746.37 816.92M1294.42 273.6L751.1 816.92M1299.15 273.6L755.84 816.92M1303.88 273.6L760.57 816.92M1308.61 273.6L765.3 816.92M1313.35 273.6L770.03 816.92M1318.08 273.6L774.76 816.92M1322.81 273.6L779.49 816.92M1327.54 273.6L784.23 816.92M1332.27 273.6L788.96 816.92M1337 273.6L793.69 816.92M1341.74 273.6L798.42 816.92M1346.47 273.6L803.15 816.92M1351.2 273.6L807.89 816.92M1355.93 273.6L812.62 816.92M1360.66 273.6L817.35 816.92M1365.4 273.6L822.08 816.92M1370.13 273.6L826.81 816.92M1374.86 273.6L831.54 816.92M1379.59 273.6L836.28 816.92M1384.32 273.6L841.01 816.92M1389.05 273.6L845.74 816.92M1393.79 273.6L850.47 816.92M1398.52 273.6L855.2 816.92M1403.25 273.6L859.93 816.92M1407.98 273.6L864.67 816.92M1412.71 273.6L869.4 816.92M1417.44 273.6L874.13 816.92M1422.18 273.6L878.86 816.92M1426.91 273.6L883.59 816.92M1431.64 273.6L888.33 816.92M1436.37 273.6L893.06 816.92M1441.1 273.6L897.79 816.92M1445.84 273.6L902.52 816.92M1450.57 273.6L907.25 816.92M1455.3 273.6L911.98 816.92M1460.03 273.6L916.72 816.92M1464.76 273.6L921.45 816.92M1469.49 273.6L926.18 816.92M1474.23 273.6L930.91 816.92M1478.96 273.6L935.64 816.92M1483.69 273.6L940.37 816.92M1488.42 273.6L945.11 816.92M1493.15 273.6L949.84 816.92M1497.88 273.6L954.57 816.92M1502.62 273.6L959.3 816.92M1507.35 273.6L964.03 816.92M1512.08 273.6L968.77 816.92M1516.81 273.6L973.5 816.92M1521.54 273.6L978.23 816.92M1526.28 273.6L982.96 816.92M1531.01 273.6L987.69 816.92M1535.74 273.6L992.42 816.92M1540.47 273.6L997.16 816.92M1545.2 273.6l-543.31 543.32M1549.93 273.6l-543.31 543.32M1554.67 273.6l-543.32 543.32M1559.4 273.6l-543.32 543.32M1564.13 273.6l-543.32 543.32M1568.86 273.6l-543.31 543.32M1573.59 273.6l-543.31 543.32M1578.32 273.6l-543.31 543.32M1583.06 273.6l-543.32 543.32M1587.79 273.6l-543.32 543.32M1592.52 273.6l-543.31 543.32M1597.25 273.6l-543.31 543.32M1601.98 273.6l-543.31 543.32M1606.72 273.6L1063.4 816.92M1611.45 273.6l-543.32 543.32M1616.18 273.6l-543.32 543.32M1620.91 273.6L1077.6 816.92M1625.64 273.6l-543.31 543.32M1630.37 273.6l-543.31 543.32M1635.11 273.6l-543.32 543.32M1639.84 273.6l-543.32 543.32M1644.57 273.6l-543.32 543.32M1649.3 273.6l-543.31 543.32M1654.03 273.6l-543.31 543.32M1658.76 273.6l-543.31 543.32M1663.5 273.6l-543.32 543.32M1668.23 273.6l-543.32 543.32M1672.96 273.6l-543.31 543.32M1677.69 273.6l-543.31 543.32M1682.42 273.6l-543.31 543.32"/></g><path id="US-NC-3" data-name="US-NC" class="cls-9" d="M949.53 528.67a51.64 51.64 0 0 0-6.44-4c-1.65-.81-7.46-5.06-12.92-9.43l-9.92-8-11.29.41c-9.64.35-11.63.16-13.58-1.34-3.78-2.89-5.82-3.27-16.92-3.14s-18.79 1.78-28.2 6c-5.16 2.33-6.21 2.51-20.16 3.5-4.95.35-9.9.85-11 1.12-1.8.43-1.77.3.3-1.31a85.29 85.29 0 0 0 6.5-6.14 41.67 41.67 0 0 1 9.2-6.89 59.44 59.44 0 0 0 10-6.91 70.93 70.93 0 0 1 13-8.25c8.18-4 12.75-7.84 14-11.84 1-3.22 2.92-3.93 12.93-4.72 4.88-.39 9.83-.85 11-1s4.75-.63 8-1 6.82-.84 8-1 10.7-1.52 21.15-2.91 19.9-2.71 21-2.91 4.07-.67 6.59-1c7.1-1 20.69-3.54 27.54-5.09 1.65-.37 2.42.21 3.41 2.59 1.18 2.86 1.08 3.24-1.42 5.39l-2.7 2.32 4.95.68c3.69.51 5.61 1.42 7.54 3.59 3.4 3.81 3.28 5.07-.91 9.62a24 24 0 0 0-4.07 5.56c-.49 1.51-4.86 2.4-9.5 1.93-.31 0-.54 1.94-.5 4.38l.07 4.44h3.75c4.33 0 4.63.95 1.5 4.64-4.47 5.26-6.13 6.36-9.62 6.36-3.06 0-4.46 1-11.31 8.13s-7.82 8.59-7.82 11.76-.38 3.8-4 5.37c-2.2 1-4.14 1.74-4.31 1.74a32 32 0 0 1-3.84-2.65z"/><path id="US-NM-2" data-name="US-NM" class="cls-1" d="M395.09 575c-5.5-1-11.57-2.1-13.5-2.41-5.19-.84-26-4.47-30-5.25a109.32 109.32 0 0 0-13.5-.72h-10l-.32 2.75c-.37 3.18-1.3 3.32-8.53 1.32a82.6 82.6 0 0 0-11.65-2c-3.57-.34-7.51-.87-8.75-1.18-4.4-1.09-7.1.41-8.37 4.67-1.16 3.88-1.32 4-5.67 4-5.72 0-12.21-1.93-12.21-3.63 0-1.35 6.7-31.6 12.15-54.87 1.68-7.15 3.24-14.06 3.48-15.35s1.14-5.34 2-9 1.74-7.55 2-8.65 3.27-14.6 6.77-30l6.38-28 2.88.07a50 50 0 0 1 6.38.71c11.72 2.15 56.75 10.83 58 11.18.82.23 3.07.65 5 .94 4.61.68 39.16 7.34 45.28 8.73 4.64 1 4.76 1.17 4.25 4.23-.29 1.73-.7 4.27-.92 5.64s-.67 4.07-1 6c-.9 5.25-1.49 8.83-2.65 16-1.27 7.9-1.71 10.59-2.39 14.54-.29 1.67-3.22 19.45-6.51 39.5-7.5 45.62-7 43-7.85 42.84z"/><g class="cls-10"><path class="cls-1" d="M423.62 287.75L185.65 525.71M426.26 290.39L188.29 528.36M428.9 293.03L190.94 531M431.55 295.68L193.58 533.65M434.19 298.32L196.23 536.29M436.84 300.97L198.87 538.93M439.48 303.61L201.51 541.58M442.13 306.26L204.16 544.22M444.77 308.9L206.8 546.87M447.41 311.54L209.45 549.51M450.06 314.19L212.09 552.16M452.7 316.83L214.74 554.8M455.35 319.48L217.38 557.45M457.99 322.12L220.03 560.09M460.64 324.77L222.67 562.73M463.28 327.41L225.31 565.38M465.93 330.06L227.96 568.02M468.57 332.7L230.6 570.67M471.21 335.34L233.25 573.31M473.86 337.99L235.89 575.96M476.5 340.63L238.54 578.6M479.15 343.28L241.18 581.24M481.79 345.92L243.82 583.89M484.44 348.57L246.47 586.53M487.08 351.21L249.11 589.18M489.73 353.86L251.76 591.82M492.37 356.5L254.4 594.47M495.01 359.14L257.05 597.11M497.66 361.79L259.69 599.76M500.3 364.43L262.34 602.4M502.95 367.08L264.98 605.04M505.59 369.72L267.62 607.69M508.24 372.37L270.27 610.33M510.88 375.01L272.91 612.98M513.52 377.65L275.56 615.62M516.17 380.3L278.2 618.27M518.81 382.94L280.85 620.91M521.46 385.59L283.49 623.56M524.1 388.23L286.14 626.2M526.75 390.88L288.78 628.84M529.39 393.52L291.42 631.49M532.04 396.17L294.07 634.13M534.68 398.81L296.71 636.78M537.32 401.45L299.36 639.42M539.97 404.1L302 642.07M542.61 406.74L304.65 644.71M545.26 409.39L307.29 647.35M547.9 412.03L309.93 650M550.55 414.68L312.58 652.64M553.19 417.32L315.22 655.29M555.84 419.96L317.87 657.93M558.48 422.61L320.51 660.58M561.12 425.25L323.16 663.22M563.77 427.9L325.8 665.87M566.41 430.54L328.45 668.51M569.06 433.19L331.09 671.15M571.7 435.83L333.73 673.8M574.35 438.48L336.38 676.44M576.99 441.12L339.02 679.09M579.63 443.76L341.67 681.73M582.28 446.41L344.31 684.38M584.92 449.05L346.96 687.02M587.57 451.7L349.6 689.67M590.21 454.34L352.24 692.31M592.86 456.99L354.89 694.95M595.5 459.63L357.53 697.6M598.15 462.28L360.18 700.24M600.79 464.92L362.82 702.89M603.43 467.56L365.47 705.53M606.08 470.21L368.11 708.18M608.72 472.85L370.76 710.82M611.37 475.5L373.4 713.46M614.01 478.14L376.04 716.11M616.66 480.79L378.69 718.75M619.3 483.43L381.33 721.4M621.95 486.07L383.98 724.04M624.59 488.72L386.62 726.69M627.23 491.36L389.27 729.33M629.88 494.01L391.91 731.98M632.52 496.65L394.56 734.62M635.17 499.3L397.2 737.26M637.81 501.94L399.84 739.91M640.46 504.59L402.49 742.55M643.1 507.23L405.13 745.2M645.74 509.87L407.78 747.84M648.39 512.52L410.42 750.49M651.03 515.16L413.07 753.13M653.68 517.81L415.71 755.77M656.32 520.45L418.35 758.42M658.97 523.1L421 761.06M661.61 525.74L423.64 763.71M664.26 528.39L426.29 766.35M666.9 531.03L428.93 769M669.54 533.67L431.58 771.64M672.19 536.32L434.22 774.29M674.83 538.96L436.87 776.93M677.48 541.61L439.51 779.57M680.12 544.25L442.15 782.22M682.77 546.9L444.8 784.86M685.41 549.54L447.44 787.51M688.06 552.18L450.09 790.15M690.7 554.83L452.73 792.8M693.34 557.47L455.38 795.44"/></g><path id="US-TN-2" data-name="US-TN" class="cls-1" d="M693.6 515.93c0-2.85 2.17-8.6 4.79-12.74 3.63-5.75 6.17-12.18 6.85-17.36.63-4.72 2.39-7 5.6-7.17l14.75-.85c10.44-.59 12.75-1 14-2.57s3.76-1.91 26.5-2.46c66.48-1.61 81.48-2.11 94.75-3.17 3.71-.3 6.75-.25 6.75.11 0 1.36-2.38 5-4.4 6.74a61 61 0 0 1-9.36 5.23 68.22 68.22 0 0 0-13 8.42 50.08 50.08 0 0 1-10.28 6.89 23.27 23.27 0 0 0-7.5 5.58 40.52 40.52 0 0 1-8 6.84 49.38 49.38 0 0 0-5.5 3.87c-1.07 1.41-12.29 1.88-59 2.44-26.68.32-50.41.76-52.75 1-2.8.27-4.21.02-4.2-.8z"/><g class="cls-11"><path class="cls-1" d="M812.72 344.46L574.75 582.43M815.36 347.11L577.4 585.07M818.01 349.75L580.04 587.72M820.65 352.4L582.69 590.36M823.3 355.04L585.33 593.01M825.94 357.68L587.97 595.65M828.59 360.33L590.62 598.3M831.23 362.97L593.26 600.94M833.87 365.62L595.91 603.58M836.52 368.26L598.55 606.23M839.16 370.91L601.2 608.87M841.81 373.55L603.84 611.52M844.45 376.2L606.48 614.16M847.1 378.84L609.13 616.81M849.74 381.48L611.77 619.45M852.39 384.13L614.42 622.1M855.03 386.77L617.06 624.74M857.67 389.42L619.71 627.38M860.32 392.06L622.35 630.03M862.96 394.71L625 632.67M865.61 397.35L627.64 635.32M868.25 399.99L630.28 637.96M870.9 402.64L632.93 640.61M873.54 405.28L635.57 643.25M876.18 407.93L638.22 645.9M878.83 410.57L640.86 648.54M881.47 413.22L643.51 651.18M884.12 415.86L646.15 653.83M886.76 418.51L648.8 656.47M889.41 421.15L651.44 659.12M892.05 423.79L654.08 661.76M894.7 426.44L656.73 664.41M897.34 429.08L659.37 667.05M899.98 431.73L662.02 669.69M902.63 434.37L664.66 672.34M905.27 437.02L667.31 674.98M907.92 439.66L669.95 677.63M910.56 442.31L672.59 680.27M913.21 444.95L675.24 682.92M915.85 447.59L677.88 685.56M918.5 450.24L680.53 688.21M921.14 452.88L683.17 690.85M923.78 455.53L685.82 693.49M926.43 458.17L688.46 696.14M929.07 460.82L691.11 698.78M931.72 463.46L693.75 701.43M934.36 466.1L696.39 704.07M937.01 468.75L699.04 706.72M939.65 471.39L701.68 709.36M942.29 474.04L704.33 712.01M944.94 476.68L706.97 714.65M947.58 479.33L709.62 717.29M950.23 481.97L712.26 719.94M952.87 484.62L714.91 722.58M955.52 487.26L717.55 725.23M958.16 489.9L720.19 727.87M960.81 492.55L722.84 730.52M963.45 495.19L725.48 733.16M966.09 497.84L728.13 735.8M968.74 500.48L730.77 738.45M971.38 503.13L733.42 741.09M974.03 505.77L736.06 743.74M976.67 508.41L738.7 746.38M979.32 511.06L741.35 749.03M981.96 513.7L743.99 751.67M984.61 516.35L746.64 754.32M987.25 518.99L749.28 756.96M989.89 521.64L751.93 759.6M992.54 524.28L754.57 762.25M995.18 526.93L757.22 764.89M997.83 529.57L759.86 767.54M1000.47 532.21L762.5 770.18M1003.12 534.86L765.15 772.83M1005.76 537.5L767.79 775.47M1008.4 540.15L770.44 778.12M1011.05 542.79L773.08 780.76M1013.69 545.44L775.73 783.4M1016.34 548.08L778.37 786.05M1018.98 550.73L781.02 788.69M1021.63 553.37L783.66 791.34M1024.27 556.01L786.3 793.98M1026.92 558.66L788.95 796.63M1029.56 561.3L791.59 799.27M1032.2 563.95L794.24 801.91M1034.85 566.59L796.88 804.56M1037.49 569.24L799.53 807.2M1040.14 571.88L802.17 809.85M1042.78 574.52L804.81 812.49M1045.43 577.17L807.46 815.14M1048.07 579.81L810.1 817.78M1050.72 582.46L812.75 820.43M1053.36 585.1L815.39 823.07M1056 587.75L818.04 825.71M1058.65 590.39L820.68 828.36M1061.29 593.04L823.33 831M1063.94 595.68L825.97 833.65M1066.58 598.32L828.61 836.29M1069.23 600.97L831.26 838.94M1071.87 603.61L833.9 841.58M1074.51 606.26L836.55 844.22M1077.16 608.9L839.19 846.87M1079.8 611.55L841.84 849.51M1082.45 614.19L844.48 852.16M879.98 273.6L336.66 816.92M884.71 273.6L341.39 816.92M889.44 273.6L346.13 816.92M894.17 273.6L350.86 816.92M898.9 273.6L355.59 816.92M903.64 273.6L360.32 816.92M908.37 273.6L365.05 816.92M913.1 273.6L369.78 816.92M917.83 273.6L374.52 816.92M922.56 273.6L379.25 816.92M927.29 273.6L383.98 816.92M932.03 273.6L388.71 816.92M936.76 273.6L393.44 816.92M941.49 273.6L398.17 816.92M946.22 273.6L402.91 816.92M950.95 273.6L407.64 816.92M955.68 273.6L412.37 816.92M960.42 273.6L417.1 816.92M965.15 273.6L421.83 816.92M969.88 273.6L426.57 816.92M974.61 273.6L431.3 816.92M979.34 273.6L436.03 816.92M984.08 273.6L440.76 816.92M988.81 273.6L445.49 816.92M993.54 273.6L450.22 816.92M998.27 273.6L454.96 816.92M1003 273.6L459.69 816.92M1007.73 273.6L464.42 816.92M1012.47 273.6L469.15 816.92M1017.2 273.6L473.88 816.92M1021.93 273.6L478.61 816.92M1026.66 273.6L483.35 816.92M1031.39 273.6L488.08 816.92M1036.12 273.6L492.81 816.92M1040.86 273.6L497.54 816.92M1045.59 273.6L502.27 816.92M1050.32 273.6L507.01 816.92M1055.05 273.6L511.74 816.92M1059.78 273.6L516.47 816.92M1064.52 273.6L521.2 816.92M1069.25 273.6L525.93 816.92M1073.98 273.6L530.66 816.92M1078.71 273.6L535.4 816.92M1083.44 273.6L540.13 816.92M1088.17 273.6L544.86 816.92M1092.91 273.6L549.59 816.92M1097.64 273.6L554.32 816.92M1102.37 273.6L559.05 816.92M1107.1 273.6L563.79 816.92M1111.83 273.6L568.52 816.92M1116.56 273.6L573.25 816.92M1121.3 273.6L577.98 816.92M1126.03 273.6L582.71 816.92M1130.76 273.6L587.45 816.92M1135.49 273.6L592.18 816.92M1140.22 273.6L596.91 816.92M1144.96 273.6L601.64 816.92M1149.69 273.6L606.37 816.92M1154.42 273.6L611.1 816.92M1159.15 273.6L615.84 816.92M1163.88 273.6L620.57 816.92M1168.61 273.6L625.3 816.92M1173.35 273.6L630.03 816.92M1178.08 273.6L634.76 816.92M1182.81 273.6L639.49 816.92M1187.54 273.6L644.23 816.92M1192.27 273.6L648.96 816.92M1197 273.6L653.69 816.92M1201.74 273.6L658.42 816.92M1206.47 273.6L663.15 816.92M1211.2 273.6L667.89 816.92M1215.93 273.6L672.62 816.92M1220.66 273.6L677.35 816.92M1225.4 273.6L682.08 816.92M1230.13 273.6L686.81 816.92M1234.86 273.6L691.54 816.92M1239.59 273.6L696.28 816.92M1244.32 273.6L701.01 816.92M1249.05 273.6L705.74 816.92M1253.79 273.6L710.47 816.92M1258.52 273.6L715.2 816.92M1263.25 273.6L719.93 816.92M1267.98 273.6L724.67 816.92M1272.71 273.6L729.4 816.92M1277.44 273.6L734.13 816.92M1282.18 273.6L738.86 816.92M1286.91 273.6L743.59 816.92M1291.64 273.6L748.33 816.92M1296.37 273.6L753.06 816.92M1301.1 273.6L757.79 816.92M1305.84 273.6L762.52 816.92M1310.57 273.6L767.25 816.92M1315.3 273.6L771.98 816.92M1320.03 273.6L776.72 816.92M1324.76 273.6L781.45 816.92M1329.49 273.6L786.18 816.92M1334.23 273.6L790.91 816.92M1338.96 273.6L795.64 816.92M1343.69 273.6L800.37 816.92M1348.42 273.6L805.11 816.92M1353.15 273.6L809.84 816.92M1357.88 273.6L814.57 816.92M1362.62 273.6L819.3 816.92M1367.35 273.6L824.03 816.92M1372.08 273.6L828.77 816.92M1376.81 273.6L833.5 816.92M1381.54 273.6L838.23 816.92M1386.28 273.6L842.96 816.92M1391.01 273.6L847.69 816.92M1395.74 273.6L852.42 816.92M1400.47 273.6L857.16 816.92M1405.2 273.6L861.89 816.92M1409.93 273.6L866.62 816.92M1414.67 273.6L871.35 816.92M1419.4 273.6L876.08 816.92M1424.13 273.6L880.81 816.92M1428.86 273.6L885.55 816.92M1433.59 273.6L890.28 816.92M1438.32 273.6L895.01 816.92M1443.06 273.6L899.74 816.92M1447.79 273.6L904.47 816.92M1452.52 273.6L909.21 816.92M1457.25 273.6L913.94 816.92M1461.98 273.6L918.67 816.92M1466.72 273.6L923.4 816.92M1471.45 273.6L928.13 816.92M1476.18 273.6L932.86 816.92M1480.91 273.6L937.6 816.92M1485.64 273.6L942.33 816.92M1490.37 273.6L947.06 816.92M1495.11 273.6L951.79 816.92M1499.84 273.6L956.52 816.92M1504.57 273.6L961.25 816.92M1509.3 273.6L965.99 816.92M1514.03 273.6L970.72 816.92M1518.76 273.6L975.45 816.92M1523.5 273.6L980.18 816.92M1528.23 273.6L984.91 816.92M1532.96 273.6L989.65 816.92M1537.69 273.6L994.38 816.92M1542.42 273.6L999.11 816.92M1547.16 273.6l-543.32 543.32M1551.89 273.6l-543.32 543.32M1556.62 273.6L1013.3 816.92M1561.35 273.6l-543.31 543.32M1566.08 273.6l-543.31 543.32M1570.81 273.6L1027.5 816.92M1575.55 273.6l-543.32 543.32M1580.28 273.6l-543.32 543.32M1585.01 273.6l-543.32 543.32M1589.74 273.6l-543.31 543.32M1594.47 273.6l-543.31 543.32"/></g><path id="US-TX-2" data-name="US-TX" class="cls-1" d="M516.69 760.07c-4.54-3.32-6.18-4-10.27-4-3.84 0-6-.72-10.1-3.4a51.51 51.51 0 0 0-9.23-4.75c-2.2-.74-4.57-2.11-5.27-3a34.66 34.66 0 0 0-2.68-3.11c-1.32-1.32-3.34-9-2.46-9.35.22-.08-.79-1.27-2.26-2.63-2.35-2.17-2.75-3.5-3.32-10.85s-1.12-9.16-4.8-15.37c-6.58-11.11-13.43-25.22-14.18-29.21-1-5.37-6.1-14.9-9.65-18.05a26.42 26.42 0 0 1-5-6.44c-1.53-3-2.62-3.83-5.65-4.35-2.06-.35-6.23-1.19-9.25-1.85-8.31-1.82-14.69-.19-17.14 4.39a16.56 16.56 0 0 0-1.86 4.68c0 .66-1.52 2.8-3.37 4.77-2.62 2.78-4.12 3.56-6.75 3.5-4.77-.1-5.84-.69-13.39-7.43-10.12-9-15.26-16.14-15.58-21.56a37.72 37.72 0 0 0-2.09-9.23 28.07 28.07 0 0 1-1.82-7.75c0-3-2.67-6.58-11.53-15.48a35.11 35.11 0 0 1-5.79-7.76c-1-2-2.59-4.15-3.61-4.7a8.71 8.71 0 0 1-3-4.23 19.32 19.32 0 0 0-3.63-5.85c-1.63-1.7-2.37-3.44-2.12-5 .35-2.26.79-2.43 6.54-2.46a120.69 120.69 0 0 1 16.4 1.72c10.94 1.88 14.56 2.47 20.48 3.39 2.06.32 5.55 1 7.75 1.44s6.25 1.17 9 1.53a36.9 36.9 0 0 1 5.58 1c1.44.86 12.92 1.57 12.92.8 0-.47.68-4.69 1.52-9.36s1.7-9.85 1.93-11.5 2.49-15.6 5-31 4.85-29.52 5.15-31.38.73-4.31.95-5.46.64-3.69.94-5.66.74-4.67 1-6 .75-4.24 1.09-6.46.77-4.72.94-5.54a23.42 23.42 0 0 0 .39-2.59c.05-.77 2.56-.72 8.61.17 4.69.69 11.33 1.55 14.75 1.9s6.89.81 7.72 1 4 .66 7 1 8.2 1 11.5 1.55 6.39.94 6.86.94.58 3.5.23 7.76c-1.34 16.4-3.64 40.83-4 42.46-.5 2.25.79 3.16 7.41 5.28 3.34 1.07 6.38 2.84 7.72 4.51 2.32 2.87 8.08 4.86 16.12 5.57 4.79.42 10 3.19 11.91 6.37a4.64 4.64 0 0 0 4 2.06 31.85 31.85 0 0 1 8.23 2.09c5 1.91 7.2 2.06 26 1.79 22.48-.33 21.88-.45 31.84 6.37a32.7 32.7 0 0 0 7.75 3.91l3.42.94v43.63l2.9 6.4a68.89 68.89 0 0 1 4.1 12.48c1.08 5.5 1 6.45-.8 10a37 37 0 0 0-2.71 10.4 60.27 60.27 0 0 1-2.53 11.5 74.14 74.14 0 0 0-2.47 8.25c-.51 2.53-1.17 3.25-3 3.25-3.95 0-9.3 2.83-13.07 6.9s-14.17 10.43-26.47 16.09c-6.72 3.09-12.62 6.44-14 8-.28.3-2.75 2.31-5.5 4.47-6.29 4.94-9.37 8.35-15.19 16.8-4.47 6.5-4.62 6.95-4.43 13.5a49.19 49.19 0 0 0 1.13 9.78c1.06 3.4 2 19.31 1.27 21.24s-2.31 1.41-8.08-2.82z"/><g class="cls-12"><path class="cls-8" d="M406.76 355.11l-543.32 543.32M411.49 355.11l-543.31 543.32M416.22 355.11l-543.31 543.32M420.95 355.11l-543.31 543.32M425.69 355.11l-543.32 543.32M430.42 355.11L-112.9 898.43M435.15 355.11l-543.32 543.32M439.88 355.11l-543.31 543.32M444.61 355.11L-98.7 898.43M449.35 355.11L-93.97 898.43M454.08 355.11L-89.24 898.43M458.81 355.11L-84.51 898.43M463.54 355.11L-79.77 898.43M468.27 355.11L-75.04 898.43M473 355.11L-70.31 898.43M477.74 355.11L-65.58 898.43M482.47 355.11L-60.85 898.43M487.2 355.11L-56.12 898.43M491.93 355.11L-51.38 898.43M496.66 355.11L-46.65 898.43M501.39 355.11L-41.92 898.43M506.13 355.11L-37.19 898.43M510.86 355.11L-32.46 898.43M515.59 355.11L-27.73 898.43M520.32 355.11L-22.99 898.43M525.05 355.11L-18.26 898.43M529.79 355.11L-13.53 898.43M534.52 355.11L-8.8 898.43M539.25 355.11L-4.07 898.43M543.98 355.11L.67 898.43M548.71 355.11L5.4 898.43M553.44 355.11L10.13 898.43M558.18 355.11L14.86 898.43M562.91 355.11L19.59 898.43M567.64 355.11L24.32 898.43M572.37 355.11L29.06 898.43M577.1 355.11L33.79 898.43M581.83 355.11L38.52 898.43M586.57 355.11L43.25 898.43M591.3 355.11L47.98 898.43M596.03 355.11L52.71 898.43M600.76 355.11L57.45 898.43M605.49 355.11L62.18 898.43M610.23 355.11L66.91 898.43M614.96 355.11L71.64 898.43M619.69 355.11L76.37 898.43M624.42 355.11L81.11 898.43M629.15 355.11L85.84 898.43M633.88 355.11L90.57 898.43M638.62 355.11L95.3 898.43M643.35 355.11L100.03 898.43M648.08 355.11L104.76 898.43M652.81 355.11L109.5 898.43M657.54 355.11L114.23 898.43M662.27 355.11L118.96 898.43M667.01 355.11L123.69 898.43M671.74 355.11L128.42 898.43M676.47 355.11L133.15 898.43M681.2 355.11L137.89 898.43M685.93 355.11L142.62 898.43M690.67 355.11L147.35 898.43M695.4 355.11L152.08 898.43M700.13 355.11L156.81 898.43M704.86 355.11L161.55 898.43M709.59 355.11L166.28 898.43M714.32 355.11L171.01 898.43M719.06 355.11L175.74 898.43M723.79 355.11L180.47 898.43M728.52 355.11L185.2 898.43M733.25 355.11L189.94 898.43M737.98 355.11L194.67 898.43M742.71 355.11L199.4 898.43M747.45 355.11L204.13 898.43M752.18 355.11L208.86 898.43M756.91 355.11L213.59 898.43M761.64 355.11L218.33 898.43M766.37 355.11L223.06 898.43M771.11 355.11L227.79 898.43M775.84 355.11L232.52 898.43M780.57 355.11L237.25 898.43M785.3 355.11L241.99 898.43M790.03 355.11L246.72 898.43M794.76 355.11L251.45 898.43M799.5 355.11L256.18 898.43M804.23 355.11L260.91 898.43M808.96 355.11L265.64 898.43M813.69 355.11L270.38 898.43M818.42 355.11L275.11 898.43M823.15 355.11L279.84 898.43M827.89 355.11L284.57 898.43M832.62 355.11L289.3 898.43M837.35 355.11L294.03 898.43M842.08 355.11L298.77 898.43M846.81 355.11L303.5 898.43M851.55 355.11L308.23 898.43M856.28 355.11L312.96 898.43M861.01 355.11L317.69 898.43M865.74 355.11L322.43 898.43M870.47 355.11L327.16 898.43M875.2 355.11L331.89 898.43M879.94 355.11L336.62 898.43M884.67 355.11L341.35 898.43M889.4 355.11L346.08 898.43M894.13 355.11L350.82 898.43M898.86 355.11L355.55 898.43M903.59 355.11L360.28 898.43M908.33 355.11L365.01 898.43M913.06 355.11L369.74 898.43M917.79 355.11L374.47 898.43M922.52 355.11L379.21 898.43M927.25 355.11L383.94 898.43M931.99 355.11L388.67 898.43M936.72 355.11L393.4 898.43M941.45 355.11L398.13 898.43M946.18 355.11L402.87 898.43M950.91 355.11L407.6 898.43M955.64 355.11L412.33 898.43M960.38 355.11L417.06 898.43M965.11 355.11L421.79 898.43M969.84 355.11L426.52 898.43M974.57 355.11L431.26 898.43M979.3 355.11L435.99 898.43M984.03 355.11L440.72 898.43M988.77 355.11L445.45 898.43M993.5 355.11L450.18 898.43M998.23 355.11L454.91 898.43M1002.96 355.11L459.65 898.43M1007.69 355.11L464.38 898.43M1012.43 355.11L469.11 898.43M1017.16 355.11L473.84 898.43M1021.89 355.11L478.57 898.43M1026.62 355.11L483.31 898.43M1031.35 355.11L488.04 898.43M1036.08 355.11L492.77 898.43M1040.82 355.11L497.5 898.43M1045.55 355.11L502.23 898.43M1050.28 355.11L506.96 898.43M1055.01 355.11L511.7 898.43M1059.74 355.11L516.43 898.43M1064.47 355.11L521.16 898.43M1069.21 355.11L525.89 898.43M1073.94 355.11L530.62 898.43M1078.67 355.11L535.35 898.43M1083.4 355.11L540.09 898.43M1088.13 355.11L544.82 898.43M1092.87 355.11L549.55 898.43M1097.6 355.11L554.28 898.43M1102.33 355.11L559.01 898.43M1107.06 355.11L563.75 898.43M1111.79 355.11L568.48 898.43M1116.52 355.11L573.21 898.43M1121.26 355.11L577.94 898.43"/></g><path id="US-TX-3" data-name="US-TX" class="cls-9" d="M516.69 760.07c-4.54-3.32-6.18-4-10.27-4-3.84 0-6-.72-10.1-3.4a51.51 51.51 0 0 0-9.23-4.75c-2.2-.74-4.57-2.11-5.27-3a34.66 34.66 0 0 0-2.68-3.11c-1.32-1.32-3.34-9-2.46-9.35.22-.08-.79-1.27-2.26-2.63-2.35-2.17-2.75-3.5-3.32-10.85s-1.12-9.16-4.8-15.37c-6.58-11.11-13.43-25.22-14.18-29.21-1-5.37-6.1-14.9-9.65-18.05a26.42 26.42 0 0 1-5-6.44c-1.53-3-2.62-3.83-5.65-4.35-2.06-.35-6.23-1.19-9.25-1.85-8.31-1.82-14.69-.19-17.14 4.39a16.56 16.56 0 0 0-1.86 4.68c0 .66-1.52 2.8-3.37 4.77-2.62 2.78-4.12 3.56-6.75 3.5-4.77-.1-5.84-.69-13.39-7.43-10.12-9-15.26-16.14-15.58-21.56a37.72 37.72 0 0 0-2.09-9.23 28.07 28.07 0 0 1-1.82-7.75c0-3-2.67-6.58-11.53-15.48a35.11 35.11 0 0 1-5.79-7.76c-1-2-2.59-4.15-3.61-4.7a8.71 8.71 0 0 1-3-4.23 19.32 19.32 0 0 0-3.63-5.85c-1.63-1.7-2.37-3.44-2.12-5 .35-2.26.79-2.43 6.54-2.46a120.69 120.69 0 0 1 16.4 1.72c10.94 1.88 14.56 2.47 20.48 3.39 2.06.32 5.55 1 7.75 1.44s6.25 1.17 9 1.53a36.9 36.9 0 0 1 5.58 1c1.44.86 12.92 1.57 12.92.8 0-.47.68-4.69 1.52-9.36s1.7-9.85 1.93-11.5 2.49-15.6 5-31 4.85-29.52 5.15-31.38.73-4.31.95-5.46.64-3.69.94-5.66.74-4.67 1-6 .75-4.24 1.09-6.46.77-4.72.94-5.54a23.42 23.42 0 0 0 .39-2.59c.05-.77 2.56-.72 8.61.17 4.69.69 11.33 1.55 14.75 1.9s6.89.81 7.72 1 4 .66 7 1 8.2 1 11.5 1.55 6.39.94 6.86.94.58 3.5.23 7.76c-1.34 16.4-3.64 40.83-4 42.46-.5 2.25.79 3.16 7.41 5.28 3.34 1.07 6.38 2.84 7.72 4.51 2.32 2.87 8.08 4.86 16.12 5.57 4.79.42 10 3.19 11.91 6.37a4.64 4.64 0 0 0 4 2.06 31.85 31.85 0 0 1 8.23 2.09c5 1.91 7.2 2.06 26 1.79 22.48-.33 21.88-.45 31.84 6.37a32.7 32.7 0 0 0 7.75 3.91l3.42.94v43.63l2.9 6.4a68.89 68.89 0 0 1 4.1 12.48c1.08 5.5 1 6.45-.8 10a37 37 0 0 0-2.71 10.4 60.27 60.27 0 0 1-2.53 11.5 74.14 74.14 0 0 0-2.47 8.25c-.51 2.53-1.17 3.25-3 3.25-3.95 0-9.3 2.83-13.07 6.9s-14.17 10.43-26.47 16.09c-6.72 3.09-12.62 6.44-14 8-.28.3-2.75 2.31-5.5 4.47-6.29 4.94-9.37 8.35-15.19 16.8-4.47 6.5-4.62 6.95-4.43 13.5a49.19 49.19 0 0 0 1.13 9.78c1.06 3.4 2 19.31 1.27 21.24s-2.31 1.41-8.08-2.82z"/></g><path class="cls-13" d="M225.46 497.92l5.98-9.78 3.25 11.04 11.51.33-8 8.29 5.46 10.18-11.18-2.84-6.04 9.86-3.19-11.12-11.51-.33 8-8.29-5.53-10.1 11.25 2.76zM876.71 705.57l5.97-9.78 3.26 11.04 11.51.33-8 8.29 5.46 10.18-11.18-2.83-6.05 9.85-3.19-11.12-11.5-.33 7.99-8.29-5.52-10.1 11.25 2.76zM910.89 677.96l5.98-9.78 3.25 11.05 11.51.32-8 8.29 5.47 10.18-11.19-2.83-6.04 9.85-3.19-11.12-11.51-.32 8-8.29-5.53-10.1 11.25 2.75zM817.97 544.72l.56-11.45 8.15 8.14 10.26-5.22-3.06 11.1 9.67 6.32-11.17 2.87-.59 11.54-8.13-8.23-10.25 5.22 3.05-11.1-9.69-6.23 11.2-2.96z"/><path class="cls-2" d="M566.28 681.95l-10.52-4.54 10.47-4.78-1.3-11.44 9.33 6.75 9.31-6.84-1.23 11.47 10.61 4.59-10.56 4.73 1.3 11.44-9.33-6.75-9.22 6.9 1.14-11.53z"/><path class="cls-13" d="M175.57 383.06l5.97-9.77 3.26 11.04 11.51.32-8 8.29 5.46 10.18-11.18-2.83-6.05 9.85-3.19-11.12-11.5-.32 7.99-8.29-5.52-10.1 11.25 2.75zM262.02 301.57l5.98-9.77 3.26 11.04 11.5.33-7.99 8.28 5.46 10.18-11.18-2.83-6.05 9.85-3.19-11.11-11.5-.33 7.99-8.29-5.53-10.1 11.25 2.75zM71.47 419.18l5.98-9.78 3.26 11.04 11.5.33-7.99 8.29 5.46 10.17-11.19-2.83-6.04 9.85-3.19-11.11-11.5-.33 7.99-8.29-5.53-10.1 11.25 2.76z"/><text class="cls-14" transform="translate(57.76 393.62)">CA</text><text class="cls-14" transform="translate(147.72 358.16)">NV</text><text class="cls-14" transform="translate(244.01 363.8)">UT</text><text class="cls-14" transform="translate(215.97 469.76)">AZ</text><text class="cls-14" transform="translate(530.42 649.11)">TX</text><text class="cls-14" transform="translate(841.47 591.74)">GA</text><text class="cls-14" transform="translate(917.96 496.32)">NC</text><text class="cls-14" transform="translate(815.76 719.76)">FL</text><path class="cls-2" d="M885.01 501.41l-6.94-9.12 11.47.97 4.48-10.6 4.82 10.46 11.47-1.4-6.7 9.39 6.99 9.21-11.52-1.06-4.48 10.6-4.82-10.46-11.42 1.49 6.65-9.48z"/></svg>
